<svg width="934" height="543" viewBox="0 0 934 543" fill="none" xmlns="http://www.w3.org/2000/svg">
<g clip-path="url(#clip0_824_2)">
<path d="M934.778 367.186C934.778 426.036 934.778 484.886 934.778 543.757C623.532 543.757 312.287 543.757 0.77832 543.757C0.77832 450.146 0.77832 356.514 1.1264 262.644C3.28903 262.436 5.10358 262.493 6.91814 262.493C122.604 262.497 238.291 262.497 353.977 262.495C357.082 262.495 360.188 262.466 363.351 262.848C363.409 297.317 363.409 331.388 363.409 365.771C365.511 365.771 367.31 365.771 369.108 365.771C555.7 365.771 742.292 365.771 928.884 365.78C930.562 365.78 932.24 365.916 934.029 366.21C934.353 366.683 934.566 366.935 934.778 367.186Z" fill="#1A3B85"/>
<path d="M363.293 262.45C360.188 262.466 357.082 262.495 353.977 262.495C238.291 262.497 122.604 262.497 6.91814 262.493C5.10358 262.493 3.28903 262.436 1.1264 262.285C0.778321 253.072 0.778321 243.98 1.08329 234.563C31.3229 239.643 61.2575 245.047 91.614 250.528C92.4763 246.804 93.3854 243.466 93.9376 240.07C94.0719 239.244 93.2515 237.69 92.4983 237.383C85.6906 234.614 78.8175 232.003 71.9306 229.433C56.8077 223.791 41.6656 218.2 26.5312 212.588C17.9471 209.406 9.36261 206.224 0.77832 203.041C0.778321 187.466 0.778321 171.891 1.06068 155.951C2.51732 156.114 3.76951 156.516 4.85419 157.189C21.1787 167.305 37.4622 177.488 53.7961 187.59C63.6795 193.702 73.6436 199.685 83.5509 205.759C89.0516 209.131 94.4491 212.679 100.04 215.892C101.135 216.521 103.629 216.588 104.237 215.867C106.851 212.773 109.002 209.288 111.328 205.936C97.7569 193.967 84.4338 182.323 71.2325 170.542C60.2609 160.751 49.5105 150.712 38.5191 140.944C27.339 131.008 16.0053 121.244 4.66981 111.485C3.62893 110.589 2.08739 110.274 0.778323 109.689C0.778321 83.2229 0.778321 56.7568 1.04061 29.9799C2.59308 31.0962 3.9908 32.4413 5.15507 33.9646C10.5641 41.0418 15.85 48.2135 21.2879 55.2683C33.7303 71.4104 46.26 87.4853 58.7081 103.623C69.2796 117.328 79.8216 131.056 90.3124 144.823C101.58 159.61 112.745 174.475 124.064 189.223C124.78 190.155 126.869 191.164 127.586 190.778C131.395 188.727 134.969 186.241 138.707 183.854C136.531 179.78 134.516 176.179 132.66 172.498C127.024 161.322 121.57 150.052 115.824 138.933C105.791 119.521 95.5571 100.213 85.4744 80.8258C76.8822 64.3049 68.3643 47.7453 59.8516 31.1833C54.6522 21.0673 49.5248 10.9142 44.365 0.777835C64.3585 0.777834 84.352 0.777834 104.79 1.07301C105.723 3.23557 106.148 5.12239 106.71 6.96736C112.917 27.3489 119.108 47.7356 125.381 68.0968C129.939 82.8893 134.646 97.6357 139.228 112.421C145.498 132.657 151.704 152.913 157.981 173.147C158.266 174.066 159.069 175.624 159.487 175.578C163.31 175.158 167.112 174.5 170.883 173.724C171.19 173.661 171.405 172.205 171.34 171.423C170.864 165.64 170.425 159.85 169.728 154.091C169.299 150.547 168.438 147.055 168.052 143.407C170.331 142.222 172.33 141.169 174.594 140.039C176.722 138.783 178.585 137.603 180.729 136.366C185.452 131.719 190.497 128.658 197.175 130.265C195.4 143.927 193.797 157.264 191.903 170.559C191.545 173.067 192.323 173.902 194.436 174.276C198.513 174.998 202.626 175.558 206.654 176.491C208.963 177.026 209.581 176.126 210.077 174.15C211.207 169.642 212.549 165.186 213.814 160.712C218.742 143.288 223.697 125.871 228.6 108.439C236.2 81.4164 243.795 54.3923 251.329 27.3514C253.789 18.5216 256.053 9.63725 258.407 0.777832C277.881 0.777834 297.356 0.777834 317.158 1.07902C315.96 5.02918 314.652 8.7881 312.872 12.3088C303.373 31.1008 293.742 49.8263 284.183 68.5884C277.089 82.5137 270.038 96.4612 262.962 110.396C259.514 117.183 256.039 123.957 252.601 130.749C248.344 139.161 244.108 147.583 239.872 156.005C235.695 164.311 231.575 172.645 227.331 180.917C226.189 183.142 226.759 184.43 228.782 185.678C232.622 188.047 236.345 190.607 240.466 193.317C241.616 192.04 242.896 190.792 243.98 189.392C257.424 172.029 270.794 154.608 284.278 137.276C294.905 123.616 305.709 110.091 316.357 96.4463C330.427 78.4159 344.285 60.2169 358.548 42.3407C362.061 37.9366 363.84 33.6878 363.557 27.9879C363.108 18.9389 363.465 9.84993 363.482 0.777834C553.828 0.777834 744.174 0.777834 934.778 0.777834C934.778 61.7322 934.778 122.687 934.414 183.98C743.909 184.318 553.767 184.318 363.257 184.318C363.257 189.899 363.257 194.935 362.999 200.04C361.457 200.698 360.204 201.37 358.884 201.866C350.682 204.95 342.434 207.915 334.261 211.075C324.913 214.69 315.651 218.524 306.31 222.156C295.974 226.174 285.575 230.028 275.239 234.045C272.012 235.299 270.151 237.466 271.509 241.239C272.206 243.175 272.785 245.154 273.402 247.118C274.922 251.961 275.927 252.495 280.686 251.053C282.294 250.566 283.919 250.131 285.552 249.734C298.215 246.658 310.896 243.656 323.542 240.515C336.806 237.22 350.037 233.796 363.344 230.778C363.367 241.569 363.33 252.009 363.293 262.45ZM280.2 208.075C293.276 199.98 306.334 191.853 319.434 183.796C333.084 175.401 346.826 167.153 360.377 158.603C361.896 157.645 363.269 155.156 363.301 153.351C363.543 139.613 363.441 125.869 363.418 112.127C363.416 111.186 363.185 110.247 363.018 108.981C361.933 109.551 361.169 109.782 360.624 110.262C349.575 119.997 338.528 129.734 327.529 139.525C314.128 151.456 300.786 163.452 287.394 175.393C276.682 184.945 265.903 194.423 255.269 204.062C254.562 204.703 254.284 206.733 254.758 207.595C256.371 210.526 258.558 213.138 260.242 216.036C261.708 218.558 263.277 218.736 265.595 217.244C270.271 214.235 275.035 211.364 280.2 208.075Z" fill="#DA251D"/>
<path d="M363.351 262.848C363.33 252.009 363.367 241.569 363.41 230.408C363.363 219.782 363.31 209.877 363.257 199.971C363.257 194.935 363.257 189.899 363.257 184.318C553.767 184.318 743.909 184.318 934.414 184.345C934.778 244.807 934.778 305.243 934.652 365.757C934.323 365.886 934.12 365.937 933.918 365.988C932.24 365.916 930.562 365.78 928.884 365.78C742.292 365.771 555.7 365.771 369.108 365.771C367.31 365.771 365.511 365.771 363.409 365.771C363.409 331.388 363.409 297.317 363.351 262.848Z" fill="white"/>
<path d="M363.117 0.777832C363.465 9.84992 363.108 18.9389 363.557 27.9879C363.84 33.6878 362.061 37.9366 358.548 42.3407C344.285 60.2169 330.427 78.4159 316.357 96.4463C305.709 110.091 294.906 123.616 284.278 137.276C270.794 154.608 257.424 172.029 243.98 189.392C242.896 190.792 241.616 192.04 240.466 193.317C236.345 190.607 232.622 188.047 228.782 185.678C226.759 184.43 226.189 183.142 227.331 180.917C231.575 172.645 235.695 164.311 239.872 156.005C244.108 147.583 248.344 139.161 252.601 130.749C256.039 123.957 259.514 117.183 262.962 110.396C270.038 96.4612 277.089 82.5137 284.183 68.5884C293.742 49.8263 303.373 31.1008 312.872 12.3088C314.652 8.7881 315.96 5.02918 317.523 1.07901C332.624 0.777832 347.688 0.777832 363.117 0.777832Z" fill="#1B3B84"/>
<path d="M44.0002 0.777833C49.5248 10.9142 54.6522 21.0673 59.8516 31.1833C68.3643 47.7453 76.8822 64.3049 85.4744 80.8258C95.557 100.213 105.791 119.521 115.824 138.933C121.57 150.052 127.024 161.322 132.66 172.498C134.516 176.179 136.531 179.78 138.707 183.854C134.969 186.241 131.395 188.727 127.586 190.778C126.869 191.164 124.78 190.155 124.064 189.223C112.745 174.475 101.58 159.61 90.3124 144.823C79.8216 131.056 69.2796 117.328 58.7081 103.623C46.26 87.4853 33.7303 71.4104 21.2879 55.2683C15.85 48.2135 10.5641 41.0418 5.15507 33.9646C3.9908 32.4413 2.59308 31.0962 1.04061 29.6153C0.77832 20.0123 0.77832 10.4631 0.77832 0.777832C15.0637 0.777832 29.3496 0.777832 44.0002 0.777833Z" fill="#1B3B84"/>
<path d="M258.042 0.777832C256.053 9.63725 253.789 18.5216 251.329 27.3514C243.795 54.3923 236.2 81.4164 228.6 108.439C223.697 125.871 218.742 143.288 213.814 160.712C212.549 165.186 211.207 169.642 210.077 174.15C209.581 176.127 208.963 177.026 206.654 176.491C202.627 175.558 198.513 174.998 194.437 174.276C192.323 173.902 191.545 173.067 191.903 170.559C193.797 157.264 195.4 143.927 197.446 130.139C201.278 129.323 204.768 128.973 208.523 128.61C214.584 127.04 217.478 122.717 219.546 117.205C220.781 111.684 205.943 107.281 203.583 101.5C202.693 98.6125 218.842 95.2544 217.869 92.4511C217.342 91.5482 216.897 90.8812 216.354 89.9662C214.743 88.521 213.23 87.3237 211.683 85.9245C211.23 85.4301 210.811 85.1378 210.19 84.6379C207.83 83.695 205.673 82.9597 203.583 81.8574C206.023 63.8155 208.441 46.1466 210.746 28.463C211.947 19.248 212.95 10.0071 214.042 0.777835C228.587 0.777834 243.132 0.777834 258.042 0.777832Z" fill="#1C3B84"/>
<path d="M167.771 143.539C168.438 147.055 169.299 150.547 169.728 154.091C170.425 159.85 170.864 165.64 171.34 171.423C171.405 172.205 171.19 173.661 170.883 173.724C167.112 174.5 163.31 175.158 159.487 175.578C159.069 175.624 158.266 174.066 157.981 173.147C151.704 152.913 145.498 132.657 139.228 112.421C134.646 97.6356 129.939 82.8892 125.381 68.0967C119.108 47.7355 112.917 27.3488 106.71 6.96728C106.148 5.1223 105.723 3.23549 105.155 1.07292C120.399 0.777749 135.722 0.777749 151.379 1.1185C153.59 17.2017 155.466 32.9442 157.345 48.6864C158.323 56.8793 159.307 65.0715 160.085 73.4655C158.47 74.7779 157.057 75.8889 155.656 77.0079C155.667 77.016 155.652 76.9932 155.406 77.0831C153.677 79.1437 152.195 81.1143 150.508 83.2438C150.14 83.708 149.977 84.0132 149.657 84.4593C149.203 85.8315 148.906 87.063 148.378 88.5289C147.274 94.5519 146.401 100.34 145.437 106.459C145.911 111.143 146.478 115.497 147.055 120.038C147.067 120.225 147.233 120.56 147.212 120.815C147.393 121.525 147.596 121.982 147.772 122.714C147.831 123.347 147.915 123.705 147.993 124.342C148.959 126.714 149.931 128.806 150.986 131.18C153.125 133.804 155.182 136.147 157.36 138.723C160.274 141.949 163.617 143.682 167.796 143.471C167.779 143.489 167.771 143.539 167.771 143.539Z" fill="#1C3B84"/>
<path d="M160.288 73.2641C159.307 65.0716 158.323 56.8794 157.345 48.6865C155.466 32.9443 153.59 17.2017 151.744 1.11859C172.287 0.777831 192.8 0.777831 213.677 0.777832C212.95 10.007 211.947 19.248 210.746 28.463C208.441 46.1466 206.023 63.8155 203.323 81.9482C196.744 83.5709 190.503 84.2068 184.179 81.8838C181.059 80.1322 178.074 78.5629 174.993 76.7448C173.308 75.4806 171.816 73.8567 170.107 73.5808C166.9 73.0633 163.568 73.3259 160.288 73.2641Z" fill="#D9251E"/>
<path d="M0.77832 110.054C2.08738 110.274 3.62893 110.589 4.66981 111.485C16.0053 121.244 27.339 131.008 38.519 140.944C49.5105 150.712 60.2609 160.751 71.2325 170.542C84.4338 182.323 97.7569 193.967 111.328 205.936C109.002 209.288 106.851 212.773 104.237 215.867C103.629 216.588 101.135 216.521 100.04 215.892C94.4491 212.679 89.0516 209.131 83.5509 205.759C73.6436 199.685 63.6795 193.703 53.796 187.59C37.4622 177.488 21.1787 167.305 4.85419 157.189C3.7695 156.517 2.51732 156.114 1.06068 155.587C0.778319 140.531 0.778319 125.475 0.77832 110.054Z" fill="#1C3B84"/>
<path d="M0.77832 203.406C9.36261 206.224 17.9471 209.406 26.5312 212.589C41.6656 218.2 56.8077 223.791 71.9306 229.433C78.8175 232.003 85.6906 234.615 92.4983 237.383C93.2515 237.69 94.0719 239.244 93.9376 240.07C93.3854 243.466 92.4763 246.804 91.614 250.528C61.2575 245.047 31.3229 239.643 1.08329 234.199C0.778321 224.03 0.778321 213.9 0.77832 203.406Z" fill="#1C3B84"/>
<path d="M279.981 208.256C275.035 211.364 270.271 214.235 265.595 217.244C263.277 218.736 261.708 218.558 260.242 216.036C258.558 213.138 256.371 210.527 254.758 207.595C254.284 206.734 254.562 204.703 255.269 204.062C265.903 194.423 276.682 184.945 287.394 175.393C300.786 163.452 314.128 151.456 327.529 139.525C338.528 129.734 349.575 119.997 360.624 110.263C361.169 109.782 361.933 109.551 363.018 108.981C363.185 110.247 363.416 111.187 363.418 112.127C363.441 125.869 363.543 139.613 363.301 153.352C363.269 155.156 361.896 157.645 360.377 158.603C346.826 167.153 333.084 175.401 319.434 183.796C306.334 191.853 293.276 199.98 279.981 208.256Z" fill="#1C3B84"/>
<path d="M362.999 200.04C363.31 209.877 363.363 219.782 363.349 230.058C350.037 233.796 336.806 237.22 323.542 240.515C310.896 243.657 298.215 246.658 285.552 249.734C283.919 250.131 282.294 250.567 280.686 251.054C275.927 252.495 274.922 251.961 273.402 247.119C272.785 245.154 272.206 243.175 271.509 241.239C270.151 237.466 272.012 235.299 275.239 234.045C285.575 230.028 295.974 226.174 306.31 222.156C315.651 218.525 324.913 214.69 334.261 211.076C342.434 207.916 350.682 204.951 358.884 201.866C360.204 201.37 361.457 200.699 362.999 200.04Z" fill="#1D3B84"/>
<path d="M216.634 159.032C210.768 159.62 204.902 160.209 198.58 161.008C186.781 159.091 178.301 164.236 170.535 171.581C177.288 160.142 182.198 148.392 181.841 134.409C182.039 131.683 182.197 129.499 182.891 127.295C189.255 126.535 192.33 128.013 189.956 134.7C189.348 136.412 189.957 138.556 189.984 141.043C189.311 145.556 188.661 149.528 187.852 153.739C187.936 154.421 188.177 154.862 188.418 155.304C188.892 154.727 189.365 154.151 190.188 153.317C192.388 150.523 194.238 147.987 196.5 145.545C198.75 145.452 201.255 145.958 202.306 144.95C205.905 141.497 206.382 143.783 206.786 147.412C206.735 149.31 206.691 150.691 206.439 152.328C206.82 153.285 207.409 153.986 208.109 155.173C211.024 156.784 213.829 157.908 216.634 159.032Z" fill="#321B01"/>
<path d="M181.801 134.95C182.198 148.391 177.288 160.141 170.063 171.675C166.76 174.125 163.628 176.109 160.058 177.685C159.607 175.857 159.595 174.436 159.669 172.703C159.756 172.391 159.852 171.752 160.128 171.477C161.014 170.038 161.624 168.875 162.722 167.685C164.18 165.936 165.151 164.213 166.304 162.171C166.854 161.213 167.222 160.576 167.988 159.812C168.921 157.583 169.456 155.48 170.008 152.861C170.938 147.036 171.85 141.728 172.779 136.441C172.795 136.462 172.848 136.457 173.276 136.287C174.177 134.432 174.649 132.747 175.125 130.487C175.151 127.204 175.172 124.496 175.623 121.761C177.38 121.409 178.707 121.084 179.829 120.81C180.527 125.817 181.164 130.383 181.801 134.95Z" fill="#734602"/>
<path d="M159.583 173.017C159.595 174.437 159.607 175.858 159.612 177.814C156.246 180.12 152.886 181.89 149.055 183.882C148.582 184.105 148.595 184.02 148.787 183.559C149.008 181.439 149.037 179.78 149.115 177.83C149.162 177.539 149.238 176.953 149.733 176.938C153.347 175.621 156.465 174.319 159.583 173.017Z" fill="#B26F03"/>
<path d="M190.007 140.502C189.957 138.556 189.348 136.412 189.956 134.7C192.33 128.013 189.254 126.535 182.782 126.696C182.05 121.688 181.961 117.258 182.006 112.404C186.144 105.285 188.875 112.699 192.268 112.888C192.279 112.885 192.274 112.914 192.352 113.36C193.519 114.67 194.608 115.534 195.697 116.397C199.139 111.59 203.572 115.043 207.62 114.839C217.565 114.34 227.488 113.409 237.419 112.652C241.388 121.831 237.683 130.56 235.159 139.86C232.551 140.919 230.634 141.517 228.672 142.129C229.517 137.736 230.289 133.724 231.06 129.712C230.681 129.564 230.302 129.416 229.923 129.268C228.257 131.331 226.59 133.394 224.924 135.457C226.722 128.033 223.219 126.486 217.06 126.762C210.224 122.677 204.346 125.148 198.194 128.738C195.199 132.745 192.603 136.623 190.007 140.502Z" fill="#513002"/>
<path d="M217.246 127.231C223.219 126.486 226.722 128.032 224.924 135.456C226.59 133.393 228.257 131.33 229.923 129.267C230.302 129.415 230.681 129.563 231.06 129.711C230.289 133.723 229.517 137.735 228.673 142.128C230.634 141.516 232.551 140.918 234.916 140.302C232.132 149.105 227.267 156.37 217.08 159.01C213.829 157.906 211.024 156.782 208.071 154.789C207.497 153.303 207.072 152.686 206.647 152.07C206.691 150.689 206.735 149.309 207.255 147.284C208.696 144.94 209.967 143.34 210.561 141.52C211.67 138.123 212.386 134.597 213.644 130.941C215.088 129.588 216.154 128.419 217.216 127.239C217.213 127.229 217.246 127.231 217.246 127.231Z" fill="#5D3802"/>
<path d="M237.421 112.114C227.488 113.41 217.565 114.34 207.62 114.839C203.572 115.043 199.139 111.59 195.698 116.397C194.608 115.534 193.519 114.67 192.803 113.232C194.606 110.932 196.037 109.208 198.201 106.601C201.912 106.601 206.687 106.601 211.463 106.601C216.526 106.601 221.59 106.601 225.655 106.601C228.373 103.621 230.649 101.126 232.925 98.6304C234.425 102.946 235.924 107.261 237.421 112.114Z" fill="#7F4E01"/>
<path d="M176.386 80.7788C186.791 84.377 197.282 83.3082 208.225 81.1974C212.288 82.2807 215.915 83.5167 219.661 85.3339C219.458 86.2106 219.24 86.569 218.823 87.0949C218.521 87.1993 217.986 87.5496 217.526 87.6901C213.831 88.7584 210.643 90.203 207.35 90.507C200.365 91.1518 192.956 89.3067 186.575 94.3159C183.837 91.595 181.43 89.144 179.005 86.3851C178.735 85.6791 178.377 85.5223 177.757 85.357C177.6 85.1071 177.117 84.7678 177.024 84.4154C176.75 82.9683 176.568 81.8735 176.386 80.7788Z" fill="#F9ECDC"/>
<path d="M232.788 98.233C230.649 101.125 228.373 103.62 225.655 106.6C221.59 106.6 216.526 106.6 211.463 106.6C206.687 106.6 201.911 106.6 198.201 106.6C196.037 109.207 194.606 110.931 192.725 112.784C192.274 112.913 192.279 112.884 192.294 112.405C191.553 109.532 190.797 107.139 190.491 104.779C191.763 104.595 192.982 104.651 193.344 104.121C197.429 98.1494 202.415 97.9333 208.565 100.873C211.04 102.056 214.238 101.727 217.825 102.176C215.744 98.4481 214.5 96.2181 213.71 94.0469C215.051 94.2953 215.938 94.485 216.997 95.0854C219.24 96.8536 221.312 98.211 224.5 100.3C223.304 93.4247 227.266 94.5596 230.406 94.4734C231.154 95.5944 231.903 96.7154 232.788 98.233Z" fill="#B26F03"/>
<path d="M230.242 94.0567C227.266 94.5599 223.304 93.4249 224.5 100.3C221.312 98.2113 219.241 96.8539 217.434 94.9575C223.698 92.3757 217.134 89.807 217.986 87.5488C217.986 87.5488 218.521 87.1985 219.358 87.2931C220.946 87.4594 221.697 87.5311 222.449 87.6028C224.992 89.6151 227.534 91.6275 230.242 94.0567Z" fill="#E49204"/>
<path d="M222.391 87.2639C221.697 87.5318 220.946 87.46 219.66 87.1893C219.24 86.5688 219.458 86.2104 220.001 85.6826C220.926 85.9416 221.629 86.433 222.391 87.2639Z" fill="#F9BB59"/>
<path d="M176.161 80.4715C176.568 81.8726 176.75 82.9673 176.54 84.608C175.468 85.2744 174.788 85.3949 173.801 85.3589C173.05 85.2222 172.607 85.2421 172.142 84.7586C171.503 83.1262 171.156 81.6029 170.209 80.953C168.434 79.7342 166.363 78.5354 164.31 78.3154C163.375 78.2152 161.109 80.7526 161.332 81.5919C161.852 83.5445 163.517 85.1925 164.718 87.4059C164.831 88.7236 164.944 89.5994 165.163 90.7688C165.486 91.4358 165.792 91.7103 166.216 92.3304C166.294 93.3672 166.344 93.9594 165.932 94.6377C163.187 95.1957 159.604 96.8173 158.834 95.9483C154.684 91.2683 152.236 94.9217 148.917 97.0118C146.529 95.9617 144.494 94.1916 142.672 94.3885C139.726 94.7068 136.709 95.9792 134.166 97.5622C133.238 98.1404 133.578 100.754 133.421 101.859C139.639 101.547 144.715 101.291 150.214 100.971C151.746 101.064 152.853 101.223 154.019 101.828C154.176 103.165 154.275 104.057 153.892 104.959C148.532 107.846 143.655 110.721 139.693 113.056C134.116 113.047 136.804 103.205 129.207 106.113C126.037 104.275 123.19 102.771 118.906 100.509C119.276 98.4695 119.885 95.1132 120.814 91.5057C122.298 90.4731 123.462 89.6917 124.627 88.9103C123.52 87.855 122.496 86.687 121.276 85.7841C120.462 85.1818 119.368 84.9574 118.4 84.5639C118.673 84.0508 118.947 83.5377 119.999 82.6375C123.256 78.9174 125.734 75.5844 128.212 72.2514C128.212 72.2514 128.238 72.2897 128.687 72.3294C139.709 69.9581 150.274 65.3435 160.883 72.2518C165.9 74.8896 170.918 77.5273 176.161 80.4715ZM157.112 83.1359L157.599 83.0707C157.599 83.0707 157.216 82.5837 156.954 81.7129C152.768 76.4737 147.023 75.3706 140.778 75.6689C134.864 75.9513 136.118 81.4449 134.256 84.6821C133.616 85.795 132.784 86.7974 131.5 87.9323C131.252 88.175 131.003 88.4177 130.755 88.6603C131.247 88.4653 131.74 88.2703 133.136 88.2C136.846 90.2365 140.124 90.2043 143.826 87.5151C145.81 86.0736 149.027 86.3272 152.926 85.5778C153.395 85.2614 155.146 84.0796 157.112 83.1359Z" fill="#F9BB59"/>
<path d="M149.238 176.953C149.238 176.953 149.162 177.538 148.596 177.836C142.313 177.295 136.596 176.456 130.88 175.617C127.423 171.68 123.966 167.742 120.599 163.031C122.711 160.359 124.732 158.461 127.063 156.273C122.352 154.3 118.85 152.833 115.349 151.366C115.208 150.766 115.066 150.165 114.983 148.671C114.715 147.012 114.389 146.246 114.062 145.481C114.062 145.481 113.782 144.917 114.108 144.558C114.665 144.174 114.896 144.149 115.535 144.13C117.24 141.095 118.537 138.054 119.211 136.475C122.077 135.149 123.857 134.326 126.125 133.536C127.591 133.608 128.568 133.646 129.629 134.139C131.514 138.141 132.953 138.663 135.048 134.564C136.436 131.848 138.889 129.622 139.58 135.182C134.553 138.275 137.028 141.767 138.863 144.736C139.833 146.307 142.104 147.075 142.962 147.651C144.08 143.695 144.769 141.259 145.862 138.962C147.663 141.613 150.837 145.414 150.124 146.396C147.958 149.38 144.289 151.275 141.584 153.31C144.354 153.233 148.607 152.795 147.763 158.683C146.944 164.396 143.385 164.109 139.047 163.011C137.557 162.634 135.751 163.499 133.65 163.875C138.156 170.609 142.838 174.743 150.481 172.978C150.477 172.973 150.467 172.965 150.411 173.38C149.982 174.848 149.61 175.9 149.238 176.953Z" fill="#E49204"/>
<path d="M115.127 144.125C114.896 144.149 114.665 144.174 114.089 144.244C112.792 136.97 111.84 129.651 111 121.169C113.301 110.677 115.49 101.349 118.147 91.9689C119.242 91.8639 119.868 91.8106 120.494 91.7573C119.885 95.1136 119.276 98.4699 118.906 100.51C123.19 102.772 126.037 104.275 129.286 106.553C130.077 108.778 130.465 110.228 130.629 112.045C129.249 114.284 128.093 116.157 126.535 118.014C125.6 117.948 125.068 117.898 124.505 117.342C124.272 114.602 124.069 112.368 123.71 108.405C122.431 110.918 121.985 111.795 121.104 112.785C118.288 115.27 115.906 117.644 112.134 121.401C112.949 127.589 114.038 135.857 115.127 144.125Z" fill="#DE9928"/>
<path d="M160.722 71.8342C150.274 65.3439 139.709 69.9586 128.668 72.3162C130.575 70.3956 132.949 68.5283 135.664 66.3223C141.518 66.0876 147.119 65.6462 152.508 66.516C155.382 66.9797 157.889 69.7093 160.722 71.8342Z" fill="#FCD190"/>
<path d="M131.083 176.008C136.596 176.455 142.313 177.294 148.549 178.127C149.037 179.779 149.008 181.438 148.816 183.527C141.6 184.343 135.981 181.431 131.083 176.008Z" fill="#C77E04"/>
<path d="M115.339 151.837C118.85 152.833 122.352 154.299 127.063 156.273C124.732 158.46 122.711 160.359 120.459 162.556C118.596 159.339 116.963 155.824 115.339 151.837Z" fill="#B26F03"/>
<path d="M117.679 92.0207C115.49 101.349 113.301 110.677 111.155 120.614C112.664 111.494 114.13 101.765 116.175 91.8098C117.082 91.6874 117.39 91.8328 117.679 92.0207Z" fill="#F9BB59"/>
<path d="M118.147 91.9689C117.391 91.8327 117.082 91.6873 116.564 91.4157C116.874 89.1772 117.373 87.1073 118.136 84.8008C119.368 84.9577 120.462 85.1821 121.276 85.7844C122.496 86.6873 123.52 87.8553 124.627 88.9106C123.462 89.692 122.298 90.4734 120.814 91.506C119.868 91.8105 119.242 91.8638 118.147 91.9689Z" fill="#7F4E01"/>
<path d="M127.799 72.4033C125.734 75.5852 123.256 78.9182 120.344 82.3712C122.403 79.1789 124.894 75.8667 127.799 72.4033Z" fill="#FCD190"/>
<path d="M114.026 145.908C114.389 146.247 114.715 147.012 115.026 148.208C114.671 147.871 114.331 147.103 114.026 145.908Z" fill="#DE9928"/>
<path d="M213.265 131.126C212.386 134.598 211.67 138.124 210.561 141.521C209.967 143.342 208.696 144.941 207.262 146.767C206.382 143.783 205.905 141.497 202.306 144.95C201.255 145.958 198.75 145.452 196.553 145.033C196.993 139.154 197.793 133.882 198.593 128.61C204.346 125.149 210.224 122.677 217.06 126.763C217.246 127.233 217.213 127.23 216.747 127.259C215.276 128.567 214.271 129.847 213.265 131.126Z" fill="#402501"/>
<path d="M198.194 128.738C197.794 133.881 196.993 139.153 196.141 144.937C194.238 147.986 192.388 150.522 189.731 153.27C188.621 153.487 188.315 153.493 188.01 153.498C188.661 149.527 189.311 145.555 189.984 141.042C192.603 136.623 195.199 132.745 198.194 128.738Z" fill="#7F4E01"/>
<path d="M181.871 112.828C181.961 117.258 182.05 121.687 182.247 126.716C182.197 129.499 182.039 131.682 181.841 134.408C181.164 130.384 180.527 125.817 179.829 120.81C178.707 121.085 177.38 121.41 175.628 121.283C174.451 118.965 173.7 117.099 172.922 114.779C172.881 113.412 172.866 112.499 173.27 111.5C175.99 111.887 178.291 112.357 180.912 112.825C181.232 112.823 181.871 112.828 181.871 112.828Z" fill="#9F6404"/>
<path d="M206.439 152.327C207.072 152.686 207.497 153.303 207.96 154.302C207.409 153.985 206.82 153.284 206.439 152.327Z" fill="#402501"/>
<path d="M187.852 153.739C188.315 153.493 188.621 153.487 189.382 153.528C189.365 154.15 188.892 154.727 188.418 155.303C188.177 154.862 187.936 154.42 187.852 153.739Z" fill="#513002"/>
<path d="M172.949 115.232C173.7 117.099 174.451 118.965 175.197 121.31C175.172 124.496 175.151 127.204 174.852 130.808C173.999 133.287 173.424 134.872 172.848 136.457C172.848 136.457 172.795 136.463 172.494 136.216C168.566 131.032 164.938 126.093 161.31 121.155C162.863 122.125 164.416 123.095 165.969 124.066C163.799 125.435 161.629 126.804 159.459 128.173C158.597 127.48 157.735 126.787 156.873 126.093C158.221 128.18 159.569 130.267 160.58 132.671C158.713 137.158 157.183 141.328 155.371 145.868C155.587 148.845 156.085 151.453 156.851 155.464C153.459 162.556 153.821 165.409 159.852 171.752C159.852 171.752 159.756 172.391 159.669 172.704C156.465 174.318 153.347 175.62 149.733 176.937C149.61 175.9 149.982 174.847 150.521 173.328C150.689 172.862 150.71 172.584 150.71 172.584L150.485 172.983C142.838 174.743 138.156 170.609 133.65 163.875C135.751 163.498 137.557 162.633 139.047 163.011C143.385 164.109 146.944 164.396 147.763 158.682C148.607 152.794 144.354 153.233 141.584 153.309C144.289 151.274 147.958 149.38 150.124 146.396C150.837 145.413 147.663 141.612 145.841 138.474C145.327 136.549 145.238 135.249 145.242 133.55C145.701 131.567 146.067 129.984 146.545 127.899C147.073 124.315 147.489 121.232 148.261 117.978C150.469 118.146 152.322 118.484 154.429 118.868C157.453 116.333 158.459 110.172 165.001 111.933C165.007 114.005 164.861 115.727 164.76 116.904C167.207 117.23 169.548 117.646 171.902 117.734C172.219 117.746 172.598 116.107 172.949 115.232ZM170.781 130.847C170.914 130.966 170.847 130.906 170.781 130.847Z" fill="#C77E04"/>
<path d="M160.917 132.354C159.569 130.267 158.221 128.18 156.873 126.093C157.735 126.787 158.597 127.48 159.459 128.173C161.629 126.804 163.799 125.435 165.969 124.066C164.416 123.095 162.863 122.125 161.31 121.155C164.938 126.093 168.566 131.032 172.478 136.195C171.85 141.728 170.938 147.036 169.66 153.079C168.727 155.856 168.158 157.897 167.589 159.939C167.222 160.576 166.854 161.214 165.859 162.261C164.233 164.351 163.234 166.032 162.234 167.712C161.624 168.875 161.014 170.039 160.128 171.477C153.821 165.409 153.459 162.556 156.851 155.464C156.085 151.453 155.587 148.845 155.798 146.058C157.838 145.704 159.831 146.015 160.381 145.267C162.284 142.678 163.684 139.72 165.438 136.616C164.245 135.491 162.581 133.922 160.917 132.354Z" fill="#B26F03"/>
<path d="M167.988 159.812C168.158 157.898 168.726 155.856 169.642 153.597C169.456 155.481 168.921 157.583 167.988 159.812Z" fill="#9F6404"/>
<path d="M162.722 167.686C163.233 166.033 164.233 164.352 165.677 162.582C165.151 164.215 164.18 165.937 162.722 167.686Z" fill="#9F6404"/>
<path d="M173.276 136.288C173.424 134.873 173.999 133.288 174.848 131.382C174.649 132.747 174.176 134.433 173.276 136.288Z" fill="#9F6404"/>
<path d="M161.604 174.981C161.642 174.962 161.565 175 161.604 174.981Z" fill="#B26F03"/>
<path d="M182.006 112.404C181.872 112.828 181.232 112.823 180.904 112.293C179.877 108.215 179.177 104.667 178.41 100.668C177.822 98.8033 177.301 97.3909 177.233 95.8689C182.778 93.5538 185.178 97.7654 188.443 100.359C188.724 100.707 188.896 100.895 189.174 101.538C189.522 102.921 189.781 103.834 190.041 104.747C190.797 107.139 191.553 109.532 192.284 112.408C188.875 112.699 186.144 105.285 182.006 112.404Z" fill="#7F4E01"/>
<path d="M213.644 130.942C214.271 129.846 215.276 128.567 216.75 127.269C216.154 128.42 215.088 129.589 213.644 130.942Z" fill="#513002"/>
<path d="M189.085 101.068C188.896 100.895 188.724 100.707 188.451 99.8599C187.858 97.6723 187.383 96.129 186.907 94.5856C192.956 89.3065 200.365 91.1516 207.35 90.5068C210.643 90.2028 213.831 88.7582 217.526 87.6899C217.134 89.8077 223.698 92.3763 217.262 94.5474C215.938 94.4859 215.051 94.2963 213.362 93.836C208.391 93.6094 204.14 93.1768 200.08 93.8664C197.41 94.3201 194.935 96.2667 192.527 97.7889C191.214 98.6194 190.222 99.9586 189.085 101.068Z" fill="#F9BB59"/>
<path d="M186.575 94.3153C187.383 96.1285 187.858 97.6719 188.326 99.7147C185.178 97.7655 182.778 93.5539 177.114 95.3785C175.731 91.8371 174.92 88.6764 174.109 85.5157C174.788 85.3953 175.468 85.2748 176.632 84.9607C177.117 84.7672 177.6 85.1065 177.905 85.5735C178.44 86.3095 178.711 86.5268 179.024 86.6923C181.43 89.1434 183.837 91.5944 186.575 94.3153Z" fill="#C77E04"/>
<path d="M179.005 86.3841C178.711 86.5264 178.44 86.3091 178.062 85.823C178.377 85.5214 178.735 85.6782 179.005 86.3841Z" fill="#D48803"/>
<path d="M189.174 101.538C190.222 99.9584 191.214 98.6192 192.527 97.7887C194.935 96.2665 197.41 94.3199 200.08 93.8662C204.14 93.1766 208.391 93.6091 212.908 93.7769C214.5 96.2188 215.744 98.4488 217.825 102.177C214.238 101.728 211.04 102.057 208.565 100.874C202.415 97.934 197.429 98.1501 193.344 104.122C192.982 104.652 191.763 104.596 190.491 104.779C189.781 103.834 189.522 102.921 189.174 101.538Z" fill="#E49204"/>
<path d="M147.905 118.15C147.489 121.232 147.073 124.315 146.141 127.722C142.013 127.29 138.403 126.536 134.74 125.287C134.043 120.236 136.074 114.899 130.854 111.678C130.465 110.228 130.077 108.778 129.609 106.888C136.804 103.205 134.116 113.048 139.693 113.056C143.655 110.721 148.532 107.846 154.192 105.264C154.233 107.022 153.854 109.266 152.684 109.809C148.925 111.555 146.591 113.688 147.905 118.15Z" fill="#F4AB35"/>
<path d="M132.039 87.8507C132.784 86.7979 133.616 85.7954 134.256 84.6825C136.118 81.4453 134.864 75.9517 140.778 75.6693C147.023 75.371 152.769 76.4742 157.003 82.2249C157.052 82.7364 156.897 82.8982 156.897 82.8982C155.146 84.08 153.395 85.2619 152.926 85.5782C149.027 86.3276 145.81 86.074 143.826 87.5155C140.124 90.2047 136.846 90.2369 132.637 88.0808C132.138 87.9612 132.039 87.8507 132.039 87.8507ZM141.132 81.7088C141.096 81.9717 141.01 82.2436 141.055 82.4922C141.069 82.5711 141.43 82.6255 141.633 82.6271C143.066 82.6385 144.499 82.6331 145.933 82.6331C145.945 82.2966 145.958 81.96 145.971 81.6234C144.593 81.6234 143.215 81.6234 141.132 81.7088Z" fill="#FCD190"/>
<path d="M148.261 117.979C146.591 113.688 148.925 111.555 152.684 109.809C153.854 109.266 154.233 107.022 154.675 105.253C154.275 104.057 154.176 103.166 154.218 101.444C155.222 100.338 156.084 99.8271 156.948 99.8243C163.082 99.8037 162.521 106.537 166.107 109.418C165.648 110.379 165.248 110.981 164.849 111.583C158.459 110.173 157.453 116.334 154.429 118.869C152.322 118.484 150.469 118.146 148.261 117.979Z" fill="#E49204"/>
<path d="M166.167 109.058C162.521 106.536 163.082 99.8031 156.948 99.8236C156.084 99.8265 155.222 100.337 154.16 100.998C152.853 101.223 151.746 101.064 150.165 100.486C149.583 99.1025 149.474 98.1386 149.365 97.1747C152.236 94.9216 154.684 91.2682 158.834 95.9483C159.604 96.8173 163.187 95.1957 166.291 94.8426C171.305 96.7 170.634 100.292 170.386 104.142C170.33 105.175 170.334 105.768 170.053 106.534C168.567 107.491 167.367 108.275 166.167 109.058Z" fill="#ECA227"/>
<path d="M170.446 103.702C170.634 100.293 171.305 96.7008 166.752 94.7574C166.344 93.9602 166.294 93.3679 166.088 92.0517C165.702 90.9801 165.41 90.6962 165.056 90.4759C164.944 89.6001 164.831 88.7244 165.15 87.4046C167.775 86.3946 169.97 85.8287 172.164 85.2627C172.607 85.2428 173.05 85.223 173.801 85.3596C174.92 88.6768 175.732 91.8375 176.661 95.4886C177.301 97.3913 177.822 98.8037 178.006 100.557C175.261 101.832 172.853 102.767 170.446 103.702Z" fill="#D48803"/>
<path d="M148.917 97.0125C149.474 98.1394 149.583 99.1033 149.741 100.552C144.715 101.292 139.639 101.547 133.421 101.86C133.578 100.755 133.238 98.1411 134.166 97.5629C136.709 95.9798 139.726 94.7075 142.672 94.3892C144.494 94.1923 146.529 95.9624 148.917 97.0125Z" fill="#FCD190"/>
<path d="M172.142 84.7596C169.97 85.8289 167.775 86.3949 165.149 86.9629C163.517 85.1935 161.852 83.5455 161.332 81.5929C161.109 80.7536 163.375 78.2162 164.31 78.3164C166.364 78.5364 168.434 79.7352 170.209 80.954C171.156 81.6039 171.503 83.1272 172.142 84.7596Z" fill="#734602"/>
<path d="M132.185 88.0184C131.74 88.2707 131.247 88.4657 130.755 88.6608C131.003 88.4181 131.252 88.1754 131.77 87.8917C132.039 87.8507 132.138 87.9612 132.185 88.0184Z" fill="#FCD190"/>
<path d="M157.134 82.6604C157.216 82.5843 157.599 83.0713 157.599 83.0713C157.599 83.0713 157.112 83.1365 157.004 83.0174C156.897 82.8984 157.052 82.7366 157.134 82.6604Z" fill="#FCD190"/>
<path d="M165.163 90.7691C165.41 90.6957 165.702 90.9797 166.059 91.6068C165.792 91.7106 165.486 91.4361 165.163 90.7691Z" fill="#ECA227"/>
<path d="M115.535 144.13C114.038 135.857 112.949 127.589 112.134 121.401C115.906 117.643 118.288 115.27 121.066 113.334C121.116 116.341 120.481 118.912 120.497 121.479C120.518 124.716 119.183 128.833 124.404 130.197C124.864 131.559 125.251 132.531 125.637 133.502C123.857 134.326 122.077 135.149 119.211 136.474C118.537 138.054 117.24 141.094 115.535 144.13Z" fill="#D48803"/>
<path d="M126.125 133.536C125.251 132.531 124.864 131.559 124.394 130.207C124.31 129.826 124.292 129.846 124.756 129.716C125.793 125.734 126.365 121.882 126.938 118.029C128.093 116.156 129.249 114.284 130.629 112.044C136.074 114.898 134.043 120.236 134.647 125.742C132.92 129.023 131.233 131.353 129.546 133.683C128.568 133.645 127.591 133.608 126.125 133.536Z" fill="#B26F03"/>
<path d="M129.629 134.139C131.233 131.353 132.919 129.023 134.699 126.237C138.402 126.536 142.013 127.29 146.029 128.223C146.067 129.984 145.701 131.567 144.805 133.576C142.851 134.355 141.427 134.708 140.002 135.062C138.889 129.622 136.436 131.848 135.047 134.564C132.953 138.663 131.513 138.14 129.629 134.139Z" fill="#D48803"/>
<path d="M139.58 135.182C141.427 134.708 142.851 134.355 144.713 133.976C145.238 135.25 145.327 136.549 145.437 138.336C144.769 141.259 144.08 143.695 142.962 147.651C142.104 147.075 139.833 146.307 138.863 144.736C137.028 141.767 134.553 138.275 139.58 135.182Z" fill="#F4AB35"/>
<path d="M124.32 129.817C119.183 128.833 120.518 124.716 120.497 121.48C120.481 118.912 121.116 116.341 121.5 113.222C121.985 111.795 122.431 110.918 123.71 108.405C124.069 112.368 124.272 114.602 124.435 117.95C124.362 122.659 124.327 126.252 124.292 129.846C124.292 129.846 124.31 129.826 124.32 129.817Z" fill="#B26F03"/>
<path d="M124.756 129.717C124.327 126.253 124.362 122.659 124.466 118.456C125.068 117.898 125.6 117.948 126.535 118.014C126.365 121.882 125.793 125.735 124.756 129.717Z" fill="#D48803"/>
<path d="M170.386 104.143C172.853 102.767 175.261 101.832 178.073 101.009C179.177 104.668 179.877 108.215 180.584 112.296C178.291 112.358 175.99 111.887 173.058 111.233C171.73 109.487 171.034 107.924 170.339 106.361C170.334 105.769 170.33 105.176 170.386 104.143Z" fill="#C77E04"/>
<path d="M170.053 106.535C171.034 107.924 171.73 109.487 172.639 111.317C172.866 112.499 172.881 113.413 172.922 114.78C172.598 116.108 172.219 117.747 171.902 117.735C169.548 117.647 167.207 117.231 164.76 116.904C164.861 115.728 165.007 114.006 165.001 111.933C165.248 110.981 165.648 110.379 166.107 109.418C167.367 108.276 168.567 107.492 170.053 106.535Z" fill="#D48803"/>
<path d="M160.58 132.671C162.581 133.923 164.245 135.491 165.438 136.616C163.684 139.72 162.284 142.678 160.381 145.267C159.831 146.015 157.838 145.704 156.08 145.688C157.183 141.328 158.713 137.159 160.58 132.671Z" fill="#9F6404"/>
<path d="M170.881 130.937C170.915 130.968 170.846 130.906 170.881 130.937Z" fill="#B26F03"/>
<path d="M150.481 172.978C150.485 172.983 150.71 172.584 150.71 172.584C150.71 172.584 150.689 172.862 150.578 172.914C150.467 172.965 150.477 172.973 150.481 172.978Z" fill="#E49204"/>
<path d="M153.726 154.023C153.741 154.059 153.711 153.988 153.726 154.023Z" fill="#B26F03"/>
<path d="M141.484 81.6657C143.215 81.623 144.593 81.623 145.971 81.623C145.958 81.9596 145.945 82.2962 145.932 82.6328C144.499 82.6328 143.066 82.6381 141.633 82.6267C141.43 82.6251 141.069 82.5707 141.055 82.4918C141.01 82.2432 141.096 81.9713 141.484 81.6657Z" fill="#F9BB59"/>
</g>
<defs>
<clipPath id="clip0_824_2">
<rect width="934" height="543" fill="white"/>
</clipPath>
</defs>
</svg>
