<?xml version="1.0" standalone="no"?><svg xmlns:xlink="http://www.w3.org/1999/xlink" xmlns="http://www.w3.org/2000/svg" viewBox="0 0 1000 545.4589047664716" preserveAspectRatio="xMaxYMax slice"><g transform="scale(1.4985134746331639)"><rect x="0" y="0" width="667.3333333333333" height="364" fill="#3A4856"/><rect x="0" y="0" width="60.666666666666664" height="60.666666666666664" fill="#3A4856"/><rect x="0" y="0" width="30.33" height="30.33" fill="#415060"/><polygon points="0,0 30.33,0 0,30.33" fill="#3a4856"/><rect x="30.33" y="0" width="30.33" height="30.33" fill="#3c4b59"/><polygon points="30.33,0 60.66,30.33 30.33,30.33" fill="#3a4856"/><rect x="0" y="30.33" width="30.33" height="30.33" fill="#3b4957"/><polygon points="0,30.33 30.33,30.33 0,60.66" fill="#3a4856"/><rect x="30.33" y="30.33" width="30.33" height="30.33" fill="#3a4856"/><polygon points="30.33,30.33 60.66,30.33 30.33,60.66" fill="#3a4856"/><rect x="60.666666666666664" y="0" width="60.666666666666664" height="60.666666666666664" fill="#3A4856"/><rect x="60.67" y="0" width="30.33" height="30.33" fill="#415060"/><polygon points="60.67,0 91,0 91,30.33" fill="#3a4856"/><rect x="91" y="0" width="30.33" height="30.33" fill="#3c4a59"/><polygon points="91,0 121.33,30.33 91,30.33" fill="#3b4957"/><rect x="60.67" y="30.33" width="30.33" height="30.33" fill="#425161"/><polygon points="60.67,30.33 91,30.33 60.67,60.66" fill="#3a4856"/><rect x="91" y="30.33" width="30.33" height="30.33" fill="#3a4856"/><polygon points="91,30.33 121.33,30.33 121.33,60.66" fill="#3a4856"/><rect x="121.33333333333333" y="0" width="60.666666666666664" height="60.666666666666664" fill="#3A4856"/><rect x="121.33" y="0" width="30.33" height="30.33" fill="#3a4856"/><polygon points="151.66,0 151.66,30.33 121.33,30.33" fill="#3a4856"/><rect x="151.67" y="0" width="30.33" height="30.33" fill="#3b4957"/><polygon points="151.67,0 182,30.33 151.67,30.33" fill="#3b4957"/><rect x="121.33" y="30.33" width="30.33" height="30.33" fill="#3a4856"/><polygon points="151.66,30.33 151.66,60.66 121.33,60.66" fill="#3a4957"/><rect x="151.67" y="30.33" width="30.33" height="30.33" fill="#3b4957"/><polygon points="151.67,30.33 182,30.33 182,60.66" fill="#3a4856"/><rect x="182" y="0" width="60.666666666666664" height="60.666666666666664" fill="#3A4856"/><rect x="182" y="0" width="30.33" height="30.33" fill="#3a4856"/><polygon points="182,0 212.32999999999998,0 212.32999999999998,30.33" fill="#3a4856"/><rect x="212.33" y="0" width="30.33" height="30.33" fill="#3c4b59"/><polygon points="242.66000000000003,0 242.66000000000003,30.33 212.33,30.33" fill="#3a4856"/><rect x="182" y="30.33" width="30.33" height="30.33" fill="#3a4856"/><polygon points="182,30.33 212.32999999999998,60.66 182,60.66" fill="#3f4e5d"/><rect x="212.33" y="30.33" width="30.33" height="30.33" fill="#3c4a59"/><polygon points="212.33,30.33 242.66000000000003,30.33 212.33,60.66" fill="#3a4856"/><rect x="242.67" y="0" width="60.67" height="60.67" fill="#3b4957"/><polygon points="242.67,0 303.34,60.67 242.67,60.67" fill="#3f4d5c"/><rect x="303.33" y="0" width="60.67" height="60.67" fill="#3a4856"/><polygon points="303.33,0 364,60.67 303.33,60.67" fill="#3d4c5a"/><rect x="364" y="0" width="60.666666666666664" height="60.666666666666664" fill="#3A4856"/><rect x="364" y="0" width="30.33" height="30.33" fill="#3a4856"/><polygon points="364,0 394.33,30.33 364,30.33" fill="#3a4856"/><rect x="394.33" y="0" width="30.33" height="30.33" fill="#3f4e5e"/><polygon points="394.33,0 424.65999999999997,0 424.65999999999997,30.33" fill="#3c4a59"/><rect x="364" y="30.33" width="30.33" height="30.33" fill="#3e4c5b"/><polygon points="364,30.33 394.33,30.33 394.33,60.66" fill="#3d4b59"/><rect x="394.33" y="30.33" width="30.33" height="30.33" fill="#3a4856"/><polygon points="394.33,30.33 424.65999999999997,60.66 394.33,60.66" fill="#3a4856"/><rect x="424.67" y="0" width="60.67" height="60.67" fill="#414f5f"/><polygon points="485.34000000000003,0 485.34000000000003,60.67 424.67,60.67" fill="#3b4957"/><rect x="485.33" y="0" width="60.67" height="60.67" fill="#3a4856"/><polygon points="485.33,0 546,0 485.33,60.67" fill="#425161"/><rect x="546" y="0" width="60.666666666666664" height="60.666666666666664" fill="#3A4856"/><rect x="546" y="0" width="30.33" height="30.33" fill="#3a4856"/><polygon points="546,0 576.33,0 546,30.33" fill="#404e5e"/><rect x="576.33" y="0" width="30.33" height="30.33" fill="#3a4856"/><polygon points="606.6600000000001,0 606.6600000000001,30.33 576.33,30.33" fill="#3a4856"/><rect x="546" y="30.33" width="30.33" height="30.33" fill="#3a4856"/><polygon points="546,30.33 576.33,30.33 576.33,60.66" fill="#3a4856"/><rect x="576.33" y="30.33" width="30.33" height="30.33" fill="#3a4856"/><polygon points="606.6600000000001,30.33 606.6600000000001,60.66 576.33,60.66" fill="#3a4856"/><rect x="606.67" y="0" width="60.67" height="60.67" fill="#414f5f"/><polygon points="667.3399999999999,0 667.3399999999999,60.67 606.67,60.67" fill="#3a4856"/><rect x="0" y="60.666666666666664" width="60.666666666666664" height="60.666666666666664" fill="#3A4856"/><rect x="0" y="60.67" width="30.33" height="30.33" fill="#3d4b5a"/><polygon points="0,60.67 30.33,60.67 30.33,91" fill="#3a4856"/><rect x="30.33" y="60.67" width="30.33" height="30.33" fill="#3a4856"/><polygon points="30.33,60.67 60.66,60.67 30.33,91" fill="#3f4e5d"/><rect x="0" y="91" width="30.33" height="30.33" fill="#3a4856"/><polygon points="0,91 30.33,91 0,121.33" fill="#3a4856"/><rect x="30.33" y="91" width="30.33" height="30.33" fill="#3a4856"/><polygon points="30.33,91 60.66,121.33 30.33,121.33" fill="#3a4856"/><rect x="60.67" y="60.67" width="60.67" height="60.67" fill="#3a4856"/><polygon points="60.67,60.67 121.34,60.67 121.34,121.34" fill="#3e4c5b"/><rect x="121.33" y="60.67" width="60.67" height="60.67" fill="#3a4856"/><polygon points="182,60.67 182,121.34 121.33,121.34" fill="#3a4856"/><rect x="182" y="60.666666666666664" width="60.666666666666664" height="60.666666666666664" fill="#3A4856"/><rect x="182" y="60.67" width="30.33" height="30.33" fill="#3a4856"/><polygon points="182,60.67 212.32999999999998,60.67 182,91" fill="#3a4856"/><rect x="212.33" y="60.67" width="30.33" height="30.33" fill="#3a4856"/><polygon points="212.33,60.67 242.66000000000003,91 212.33,91" fill="#404f5e"/><rect x="182" y="91" width="30.33" height="30.33" fill="#3a4856"/><polygon points="182,91 212.32999999999998,121.33 182,121.33" fill="#3f4d5d"/><rect x="212.33" y="91" width="30.33" height="30.33" fill="#3a4856"/><polygon points="212.33,91 242.66000000000003,91 242.66000000000003,121.33" fill="#3e4c5b"/><rect x="242.67" y="60.67" width="60.67" height="60.67" fill="#3a4856"/><polygon points="242.67,60.67 303.34,121.34 242.67,121.34" fill="#3f4e5d"/><rect x="303.3333333333333" y="60.666666666666664" width="60.666666666666664" height="60.666666666666664" fill="#3A4856"/><rect x="303.33" y="60.67" width="30.33" height="30.33" fill="#3b4a58"/><polygon points="303.33,60.67 333.65999999999997,60.67 333.65999999999997,91" fill="#3a4856"/><rect x="333.67" y="60.67" width="30.33" height="30.33" fill="#3d4b5a"/><polygon points="333.67,60.67 364,60.67 364,91" fill="#3e4c5b"/><rect x="303.33" y="91" width="30.33" height="30.33" fill="#415060"/><polygon points="333.65999999999997,91 333.65999999999997,121.33 303.33,121.33" fill="#3a4856"/><rect x="333.67" y="91" width="30.33" height="30.33" fill="#3b4957"/><polygon points="364,91 364,121.33 333.67,121.33" fill="#3a4856"/><rect x="364" y="60.67" width="60.67" height="60.67" fill="#3a4856"/><polygon points="364,60.67 424.67,60.67 364,121.34" fill="#3f4e5d"/><rect x="424.66666666666663" y="60.666666666666664" width="60.666666666666664" height="60.666666666666664" fill="#3A4856"/><rect x="424.67" y="60.67" width="30.33" height="30.33" fill="#3a4856"/><polygon points="424.67,60.67 455,60.67 455,91" fill="#3c4a58"/><rect x="455" y="60.67" width="30.33" height="30.33" fill="#3a4856"/><polygon points="455,60.67 485.33,60.67 485.33,91" fill="#3d4b5a"/><rect x="424.67" y="91" width="30.33" height="30.33" fill="#3a4856"/><polygon points="424.67,91 455,121.33 424.67,121.33" fill="#3a4856"/><rect x="455" y="91" width="30.33" height="30.33" fill="#3a4856"/><polygon points="455,91 485.33,91 455,121.33" fill="#3a4856"/><rect x="485.3333333333333" y="60.666666666666664" width="60.666666666666664" height="60.666666666666664" fill="#3A4856"/><rect x="485.33" y="60.67" width="30.33" height="30.33" fill="#3f4d5c"/><polygon points="485.33,60.67 515.66,60.67 485.33,91" fill="#3b4957"/><rect x="515.67" y="60.67" width="30.33" height="30.33" fill="#3a4856"/><polygon points="515.67,60.67 546,91 515.67,91" fill="#3e4c5b"/><rect x="485.33" y="91" width="30.33" height="30.33" fill="#3f4e5d"/><polygon points="485.33,91 515.66,91 485.33,121.33" fill="#3a4856"/><rect x="515.67" y="91" width="30.33" height="30.33" fill="#404f5f"/><polygon points="515.67,91 546,91 546,121.33" fill="#3a4856"/><rect x="546" y="60.67" width="60.67" height="60.67" fill="#3a4856"/><polygon points="546,60.67 606.67,121.34 546,121.34" fill="#3c4b59"/><rect x="606.6666666666666" y="60.666666666666664" width="60.666666666666664" height="60.666666666666664" fill="#3A4856"/><rect x="606.67" y="60.67" width="30.33" height="30.33" fill="#425161"/><polygon points="606.67,60.67 637,60.67 606.67,91" fill="#3d4b5a"/><rect x="637" y="60.67" width="30.33" height="30.33" fill="#3a4856"/><polygon points="637,60.67 667.33,60.67 637,91" fill="#3b4957"/><rect x="606.67" y="91" width="30.33" height="30.33" fill="#404f5f"/><polygon points="606.67,91 637,121.33 606.67,121.33" fill="#3a4856"/><rect x="637" y="91" width="30.33" height="30.33" fill="#3a4856"/><polygon points="637,91 667.33,121.33 637,121.33" fill="#404f5f"/><rect x="0" y="121.33" width="60.67" height="60.67" fill="#3a4856"/><polygon points="0,121.33 60.67,182 0,182" fill="#415060"/><rect x="60.666666666666664" y="121.33333333333333" width="60.666666666666664" height="60.666666666666664" fill="#3A4856"/><rect x="60.67" y="121.33" width="30.33" height="30.33" fill="#3a4856"/><polygon points="60.67,121.33 91,121.33 91,151.66" fill="#3a4856"/><rect x="91" y="121.33" width="30.33" height="30.33" fill="#3b4a58"/><polygon points="91,121.33 121.33,151.66 91,151.66" fill="#3a4856"/><rect x="60.67" y="151.67" width="30.33" height="30.33" fill="#3a4856"/><polygon points="60.67,151.67 91,151.67 91,182" fill="#415060"/><rect x="91" y="151.67" width="30.33" height="30.33" fill="#3a4856"/><polygon points="91,151.67 121.33,182 91,182" fill="#3a4856"/><rect x="121.33333333333333" y="121.33333333333333" width="60.666666666666664" height="60.666666666666664" fill="#3A4856"/><rect x="121.33" y="121.33" width="30.33" height="30.33" fill="#3a4856"/><polygon points="121.33,121.33 151.66,121.33 121.33,151.66" fill="#3a4856"/><rect x="151.67" y="121.33" width="30.33" height="30.33" fill="#404f5e"/><polygon points="151.67,121.33 182,121.33 182,151.66" fill="#3b4958"/><rect x="121.33" y="151.67" width="30.33" height="30.33" fill="#3d4c5b"/><polygon points="121.33,151.67 151.66,182 121.33,182" fill="#3f4e5d"/><rect x="151.67" y="151.67" width="30.33" height="30.33" fill="#3a4856"/><polygon points="151.67,151.67 182,151.67 151.67,182" fill="#3c4a59"/><rect x="182" y="121.33" width="60.67" height="60.67" fill="#3a4856"/><polygon points="182,121.33 242.67000000000002,121.33 182,182" fill="#3c4a59"/><rect x="242.67" y="121.33" width="60.67" height="60.67" fill="#3a4856"/><polygon points="242.67,121.33 303.34,182 242.67,182" fill="#3c4a58"/><rect x="303.33" y="121.33" width="60.67" height="60.67" fill="#3b4a58"/><polygon points="303.33,121.33 364,182 303.33,182" fill="#425161"/><rect x="364" y="121.33" width="60.67" height="60.67" fill="#3b4957"/><polygon points="424.67,121.33 424.67,182 364,182" fill="#3e4c5b"/><rect x="424.67" y="121.33" width="60.67" height="60.67" fill="#3c4a58"/><polygon points="424.67,121.33 485.34000000000003,182 424.67,182" fill="#3f4e5d"/><rect x="485.33" y="121.33" width="60.67" height="60.67" fill="#3f4e5d"/><polygon points="485.33,121.33 546,121.33 485.33,182" fill="#425060"/><rect x="546" y="121.33" width="60.67" height="60.67" fill="#3a4856"/><polygon points="606.67,121.33 606.67,182 546,182" fill="#3a4856"/><rect x="606.6666666666666" y="121.33333333333333" width="60.666666666666664" height="60.666666666666664" fill="#3A4856"/><rect x="606.67" y="121.33" width="30.33" height="30.33" fill="#3a4856"/><polygon points="606.67,121.33 637,121.33 606.67,151.66" fill="#3a4856"/><rect x="637" y="121.33" width="30.33" height="30.33" fill="#3f4e5d"/><polygon points="667.33,121.33 667.33,151.66 637,151.66" fill="#3d4c5b"/><rect x="606.67" y="151.67" width="30.33" height="30.33" fill="#404f5e"/><polygon points="637,151.67 637,182 606.67,182" fill="#3c4a58"/><rect x="637" y="151.67" width="30.33" height="30.33" fill="#3a4856"/><polygon points="667.33,151.67 667.33,182 637,182" fill="#404f5e"/><rect x="0" y="182" width="60.666666666666664" height="60.666666666666664" fill="#3A4856"/><rect x="0" y="182" width="30.33" height="30.33" fill="#3e4d5c"/><polygon points="0,182 30.33,212.32999999999998 0,212.32999999999998" fill="#3a4856"/><rect x="30.33" y="182" width="30.33" height="30.33" fill="#3e4c5b"/><polygon points="30.33,182 60.66,182 30.33,212.32999999999998" fill="#3a4856"/><rect x="0" y="212.33" width="30.33" height="30.33" fill="#3d4c5b"/><polygon points="0,212.33 30.33,242.66000000000003 0,242.66000000000003" fill="#3a4856"/><rect x="30.33" y="212.33" width="30.33" height="30.33" fill="#3a4856"/><polygon points="30.33,212.33 60.66,242.66000000000003 30.33,242.66000000000003" fill="#3a4856"/><rect x="60.666666666666664" y="182" width="60.666666666666664" height="60.666666666666664" fill="#3A4856"/><rect x="60.67" y="182" width="30.33" height="30.33" fill="#3a4856"/><polygon points="60.67,182 91,182 60.67,212.32999999999998" fill="#3d4c5a"/><rect x="91" y="182" width="30.33" height="30.33" fill="#3f4e5d"/><polygon points="91,182 121.33,182 121.33,212.32999999999998" fill="#3a4856"/><rect x="60.67" y="212.33" width="30.33" height="30.33" fill="#3a4856"/><polygon points="60.67,212.33 91,212.33 91,242.66000000000003" fill="#3a4856"/><rect x="91" y="212.33" width="30.33" height="30.33" fill="#3a4856"/><polygon points="91,212.33 121.33,212.33 121.33,242.66000000000003" fill="#3f4d5c"/><rect x="121.33333333333333" y="182" width="60.666666666666664" height="60.666666666666664" fill="#3A4856"/><rect x="121.33" y="182" width="30.33" height="30.33" fill="#3a4856"/><polygon points="151.66,182 151.66,212.32999999999998 121.33,212.32999999999998" fill="#3c4a59"/><rect x="151.67" y="182" width="30.33" height="30.33" fill="#3a4856"/><polygon points="151.67,182 182,182 151.67,212.32999999999998" fill="#3c4a58"/><rect x="121.33" y="212.33" width="30.33" height="30.33" fill="#3a4856"/><polygon points="121.33,212.33 151.66,212.33 121.33,242.66000000000003" fill="#425160"/><rect x="151.67" y="212.33" width="30.33" height="30.33" fill="#3a4856"/><polygon points="151.67,212.33 182,242.66000000000003 151.67,242.66000000000003" fill="#3b4957"/><rect x="182" y="182" width="60.67" height="60.67" fill="#3f4d5d"/><polygon points="182,182 242.67000000000002,242.67000000000002 182,242.67000000000002" fill="#3b4957"/><rect x="242.67" y="182" width="60.67" height="60.67" fill="#3a4856"/><polygon points="242.67,182 303.34,182 303.34,242.67000000000002" fill="#404f5e"/><rect x="303.3333333333333" y="182" width="60.666666666666664" height="60.666666666666664" fill="#3A4856"/><rect x="303.33" y="182" width="30.33" height="30.33" fill="#3e4d5c"/><polygon points="303.33,182 333.65999999999997,182 303.33,212.32999999999998" fill="#3a4856"/><rect x="333.67" y="182" width="30.33" height="30.33" fill="#3a4856"/><polygon points="333.67,182 364,182 364,212.32999999999998" fill="#3d4c5b"/><rect x="303.33" y="212.33" width="30.33" height="30.33" fill="#3a4856"/><polygon points="303.33,212.33 333.65999999999997,212.33 303.33,242.66000000000003" fill="#3a4856"/><rect x="333.67" y="212.33" width="30.33" height="30.33" fill="#415060"/><polygon points="364,212.33 364,242.66000000000003 333.67,242.66000000000003" fill="#3d4c5a"/><rect x="364" y="182" width="60.666666666666664" height="60.666666666666664" fill="#3A4856"/><rect x="364" y="182" width="30.33" height="30.33" fill="#3f4e5d"/><polygon points="364,182 394.33,182 394.33,212.32999999999998" fill="#404f5e"/><rect x="394.33" y="182" width="30.33" height="30.33" fill="#3a4856"/><polygon points="394.33,182 424.65999999999997,182 394.33,212.32999999999998" fill="#3d4b5a"/><rect x="364" y="212.33" width="30.33" height="30.33" fill="#3a4856"/><polygon points="364,212.33 394.33,212.33 364,242.66000000000003" fill="#3a4856"/><rect x="394.33" y="212.33" width="30.33" height="30.33" fill="#404f5f"/><polygon points="394.33,212.33 424.65999999999997,242.66000000000003 394.33,242.66000000000003" fill="#3a4856"/><rect x="424.67" y="182" width="60.67" height="60.67" fill="#3a4856"/><polygon points="485.34000000000003,182 485.34000000000003,242.67000000000002 424.67,242.67000000000002" fill="#3a4856"/><rect x="485.33" y="182" width="60.67" height="60.67" fill="#3a4856"/><polygon points="485.33,182 546,242.67000000000002 485.33,242.67000000000002" fill="#415060"/><rect x="546" y="182" width="60.67" height="60.67" fill="#3a4856"/><polygon points="546,182 606.67,182 546,242.67000000000002" fill="#3b4957"/><rect x="606.6666666666666" y="182" width="60.666666666666664" height="60.666666666666664" fill="#3A4856"/><rect x="606.67" y="182" width="30.33" height="30.33" fill="#3a4856"/><polygon points="606.67,182 637,182 606.67,212.32999999999998" fill="#3d4c5a"/><rect x="637" y="182" width="30.33" height="30.33" fill="#3a4856"/><polygon points="637,182 667.33,182 637,212.32999999999998" fill="#415060"/><rect x="606.67" y="212.33" width="30.33" height="30.33" fill="#3a4856"/><polygon points="606.67,212.33 637,212.33 606.67,242.66000000000003" fill="#3a4856"/><rect x="637" y="212.33" width="30.33" height="30.33" fill="#3a4856"/><polygon points="667.33,212.33 667.33,242.66000000000003 637,242.66000000000003" fill="#3a4856"/><rect x="0" y="242.67" width="60.67" height="60.67" fill="#3a4856"/><polygon points="0,242.67 60.67,242.67 0,303.34" fill="#404f5e"/><rect x="60.666666666666664" y="242.66666666666666" width="60.666666666666664" height="60.666666666666664" fill="#3A4856"/><rect x="60.67" y="242.67" width="30.33" height="30.33" fill="#3a4856"/><polygon points="60.67,242.67 91,273 60.67,273" fill="#3a4856"/><rect x="91" y="242.67" width="30.33" height="30.33" fill="#3d4c5a"/><polygon points="91,242.67 121.33,273 91,273" fill="#3f4e5d"/><rect x="60.67" y="273" width="30.33" height="30.33" fill="#3a4856"/><polygon points="91,273 91,303.33 60.67,303.33" fill="#3a4856"/><rect x="91" y="273" width="30.33" height="30.33" fill="#3a4957"/><polygon points="91,273 121.33,303.33 91,303.33" fill="#3a4856"/><rect x="121.33" y="242.67" width="60.67" height="60.67" fill="#3a4856"/><polygon points="182,242.67 182,303.34 121.33,303.34" fill="#3a4856"/><rect x="182" y="242.67" width="60.67" height="60.67" fill="#3d4c5a"/><polygon points="182,242.67 242.67000000000002,242.67 182,303.34" fill="#3a4856"/><rect x="242.66666666666666" y="242.66666666666666" width="60.666666666666664" height="60.666666666666664" fill="#3A4856"/><rect x="242.67" y="242.67" width="30.33" height="30.33" fill="#3a4856"/><polygon points="242.67,242.67 273,242.67 242.67,273" fill="#3a4856"/><rect x="273" y="242.67" width="30.33" height="30.33" fill="#3d4c5b"/><polygon points="273,242.67 303.33,242.67 303.33,273" fill="#3e4c5b"/><rect x="242.67" y="273" width="30.33" height="30.33" fill="#3b4a58"/><polygon points="242.67,273 273,303.33 242.67,303.33" fill="#3e4d5c"/><rect x="273" y="273" width="30.33" height="30.33" fill="#3a4856"/><polygon points="303.33,273 303.33,303.33 273,303.33" fill="#3d4b5a"/><rect x="303.33" y="242.67" width="60.67" height="60.67" fill="#3e4d5c"/><polygon points="303.33,242.67 364,242.67 364,303.34" fill="#404e5e"/><rect x="364" y="242.66666666666666" width="60.666666666666664" height="60.666666666666664" fill="#3A4856"/><rect x="364" y="242.67" width="30.33" height="30.33" fill="#3a4856"/><polygon points="364,242.67 394.33,242.67 364,273" fill="#3a4856"/><rect x="394.33" y="242.67" width="30.33" height="30.33" fill="#3a4957"/><polygon points="394.33,242.67 424.65999999999997,242.67 394.33,273" fill="#3a4856"/><rect x="364" y="273" width="30.33" height="30.33" fill="#3b4957"/><polygon points="364,273 394.33,273 364,303.33" fill="#3a4856"/><rect x="394.33" y="273" width="30.33" height="30.33" fill="#3a4856"/><polygon points="424.65999999999997,273 424.65999999999997,303.33 394.33,303.33" fill="#3a4957"/><rect x="424.66666666666663" y="242.66666666666666" width="60.666666666666664" height="60.666666666666664" fill="#3A4856"/><rect x="424.67" y="242.67" width="30.33" height="30.33" fill="#3a4856"/><polygon points="424.67,242.67 455,273 424.67,273" fill="#3e4d5c"/><rect x="455" y="242.67" width="30.33" height="30.33" fill="#3a4856"/><polygon points="455,242.67 485.33,273 455,273" fill="#3a4856"/><rect x="424.67" y="273" width="30.33" height="30.33" fill="#3a4856"/><polygon points="424.67,273 455,273 424.67,303.33" fill="#3a4856"/><rect x="455" y="273" width="30.33" height="30.33" fill="#3a4856"/><polygon points="455,273 485.33,303.33 455,303.33" fill="#3f4d5d"/><rect x="485.33" y="242.67" width="60.67" height="60.67" fill="#3a4856"/><polygon points="485.33,242.67 546,303.34 485.33,303.34" fill="#3d4b5a"/><rect x="546" y="242.66666666666666" width="60.666666666666664" height="60.666666666666664" fill="#3A4856"/><rect x="546" y="242.67" width="30.33" height="30.33" fill="#3a4857"/><polygon points="576.33,242.67 576.33,273 546,273" fill="#3a4856"/><rect x="576.33" y="242.67" width="30.33" height="30.33" fill="#425161"/><polygon points="576.33,242.67 606.6600000000001,242.67 606.6600000000001,273" fill="#3d4b5a"/><rect x="546" y="273" width="30.33" height="30.33" fill="#3a4856"/><polygon points="546,273 576.33,273 546,303.33" fill="#41505f"/><rect x="576.33" y="273" width="30.33" height="30.33" fill="#3a4856"/><polygon points="576.33,273 606.6600000000001,303.33 576.33,303.33" fill="#3a4856"/><rect x="606.6666666666666" y="242.66666666666666" width="60.666666666666664" height="60.666666666666664" fill="#3A4856"/><rect x="606.67" y="242.67" width="30.33" height="30.33" fill="#3e4c5b"/><polygon points="637,242.67 637,273 606.67,273" fill="#3a4856"/><rect x="637" y="242.67" width="30.33" height="30.33" fill="#3a4856"/><polygon points="637,242.67 667.33,273 637,273" fill="#3a4856"/><rect x="606.67" y="273" width="30.33" height="30.33" fill="#3a4856"/><polygon points="637,273 637,303.33 606.67,303.33" fill="#3a4856"/><rect x="637" y="273" width="30.33" height="30.33" fill="#415060"/><polygon points="637,273 667.33,273 667.33,303.33" fill="#3a4856"/><rect x="0" y="303.3333333333333" width="60.666666666666664" height="60.666666666666664" fill="#3A4856"/><rect x="0" y="303.33" width="30.33" height="30.33" fill="#3a4856"/><polygon points="0,303.33 30.33,333.65999999999997 0,333.65999999999997" fill="#3a4856"/><rect x="30.33" y="303.33" width="30.33" height="30.33" fill="#3a4856"/><polygon points="30.33,303.33 60.66,333.65999999999997 30.33,333.65999999999997" fill="#3c4a58"/><rect x="0" y="333.67" width="30.33" height="30.33" fill="#3b4a58"/><polygon points="0,333.67 30.33,333.67 0,364" fill="#3c4b59"/><rect x="30.33" y="333.67" width="30.33" height="30.33" fill="#3e4c5b"/><polygon points="30.33,333.67 60.66,364 30.33,364" fill="#414f5f"/><rect x="60.67" y="303.33" width="60.67" height="60.67" fill="#415060"/><polygon points="60.67,303.33 121.34,303.33 60.67,364" fill="#404f5e"/><rect x="121.33333333333333" y="303.3333333333333" width="60.666666666666664" height="60.666666666666664" fill="#3A4856"/><rect x="121.33" y="303.33" width="30.33" height="30.33" fill="#3a4856"/><polygon points="121.33,303.33 151.66,303.33 151.66,333.65999999999997" fill="#3a4856"/><rect x="151.67" y="303.33" width="30.33" height="30.33" fill="#404f5e"/><polygon points="182,303.33 182,333.65999999999997 151.67,333.65999999999997" fill="#3a4856"/><rect x="121.33" y="333.67" width="30.33" height="30.33" fill="#415060"/><polygon points="121.33,333.67 151.66,333.67 151.66,364" fill="#3e4d5c"/><rect x="151.67" y="333.67" width="30.33" height="30.33" fill="#3f4e5d"/><polygon points="182,333.67 182,364 151.67,364" fill="#404f5e"/><rect x="182" y="303.3333333333333" width="60.666666666666664" height="60.666666666666664" fill="#3A4856"/><rect x="182" y="303.33" width="30.33" height="30.33" fill="#3b4957"/><polygon points="182,303.33 212.32999999999998,303.33 182,333.65999999999997" fill="#425161"/><rect x="212.33" y="303.33" width="30.33" height="30.33" fill="#404f5e"/><polygon points="242.66000000000003,303.33 242.66000000000003,333.65999999999997 212.33,333.65999999999997" fill="#3a4856"/><rect x="182" y="333.67" width="30.33" height="30.33" fill="#3c4b59"/><polygon points="182,333.67 212.32999999999998,333.67 182,364" fill="#3a4856"/><rect x="212.33" y="333.67" width="30.33" height="30.33" fill="#415060"/><polygon points="242.66000000000003,333.67 242.66000000000003,364 212.33,364" fill="#3a4856"/><rect x="242.67" y="303.33" width="60.67" height="60.67" fill="#3a4856"/><polygon points="303.34,303.33 303.34,364 242.67,364" fill="#3a4856"/><rect x="303.33" y="303.33" width="60.67" height="60.67" fill="#3a4856"/><polygon points="303.33,303.33 364,303.33 364,364" fill="#3a4856"/><rect x="364" y="303.33" width="60.67" height="60.67" fill="#3a4856"/><polygon points="364,303.33 424.67,364 364,364" fill="#3d4c5b"/><rect x="424.66666666666663" y="303.3333333333333" width="60.666666666666664" height="60.666666666666664" fill="#3A4856"/><rect x="424.67" y="303.33" width="30.33" height="30.33" fill="#3a4856"/><polygon points="424.67,303.33 455,303.33 455,333.65999999999997" fill="#3b4958"/><rect x="455" y="303.33" width="30.33" height="30.33" fill="#3b4957"/><polygon points="455,303.33 485.33,303.33 455,333.65999999999997" fill="#3a4856"/><rect x="424.67" y="333.67" width="30.33" height="30.33" fill="#3c4a58"/><polygon points="424.67,333.67 455,333.67 424.67,364" fill="#3a4856"/><rect x="455" y="333.67" width="30.33" height="30.33" fill="#3e4c5b"/><polygon points="455,333.67 485.33,333.67 485.33,364" fill="#3a4856"/><rect x="485.33" y="303.33" width="60.67" height="60.67" fill="#3f4e5d"/><polygon points="485.33,303.33 546,364 485.33,364" fill="#3a4856"/><rect x="546" y="303.33" width="60.67" height="60.67" fill="#3e4c5b"/><polygon points="606.67,303.33 606.67,364 546,364" fill="#3c4a58"/><rect x="606.6666666666666" y="303.3333333333333" width="60.666666666666664" height="60.666666666666664" fill="#3A4856"/><rect x="606.67" y="303.33" width="30.33" height="30.33" fill="#3c4a58"/><polygon points="606.67,303.33 637,333.65999999999997 606.67,333.65999999999997" fill="#425161"/><rect x="637" y="303.33" width="30.33" height="30.33" fill="#3a4856"/><polygon points="667.33,303.33 667.33,333.65999999999997 637,333.65999999999997" fill="#3a4856"/><rect x="606.67" y="333.67" width="30.33" height="30.33" fill="#3c4a59"/><polygon points="606.67,333.67 637,364 606.67,364" fill="#3a4856"/><rect x="637" y="333.67" width="30.33" height="30.33" fill="#3a4856"/><polygon points="667.33,333.67 667.33,364 637,364" fill="#3a4856"/></g></svg>