<svg width="283" height="206" viewBox="0 0 283 206" fill="none" xmlns="http://www.w3.org/2000/svg">
<path d="M129.653 180.129V205.074H134.721C134.721 205.074 134.025 198.712 136.401 192.601C139.759 183.966 147.195 180.129 147.195 180.129H129.653" fill="#00527A"/>
<path d="M129.653 180.129V205.074H126.267C126.267 205.074 126.733 198.712 125.145 192.601C122.901 183.966 117.932 180.129 117.932 180.129H129.653" fill="#00527A"/>
<path d="M153.38 11.6246H83.1479V70.2844H94.5724V180.129H174.693V36.0841C174.693 22.2538 165.751 11.6246 153.38 11.6246Z" fill="url(#paint0_linear_120_299)"/>
<path d="M83.1481 11.6246C71.3669 11.6246 61.8154 20.859 61.8154 32.2526V180.131H104.479V32.2526C104.479 20.859 94.9294 11.6246 83.1481 11.6246Z" fill="#71BEE5"/>
<path d="M113.776 168.722H166.825V97.741H113.776V168.722ZM167.843 169.738H112.758V96.7225H167.843V169.738Z" fill="#3A4856"/>
<path d="M142.487 84.458C142.485 84.4657 142.475 84.4677 142.452 84.4677H140.063L140.046 84.4638C140.04 84.456 140.042 84.4444 140.049 84.4192L141.129 81.1075C141.172 80.9814 141.193 80.9135 141.215 80.9116L141.232 80.9213L141.236 80.9271L141.252 80.9562L141.254 80.9601C141.261 80.9756 141.269 80.995 141.279 81.0183L141.281 81.0241C141.29 81.0474 141.3 81.0746 141.312 81.1075L142.475 84.4192C142.481 84.4386 142.489 84.4502 142.487 84.458L142.491 84.4618L142.487 84.458ZM146.163 88.435C146.163 88.4117 146.126 88.4001 146.029 88.4001C145.907 88.4001 145.678 88.4001 145.496 88.338C145.455 88.3244 145.419 88.3109 145.384 88.2973L145.356 88.2837C145.327 88.2701 145.298 88.2565 145.271 88.241L145.261 88.2371C145.232 88.2197 145.205 88.2003 145.178 88.1809L145.161 88.1653C145.137 88.1479 145.118 88.1285 145.099 88.1091L145.085 88.0955C145.064 88.0722 145.042 88.0451 145.021 88.014L145.005 87.9927C144.988 87.9655 144.971 87.9384 144.953 87.9073L144.94 87.886C144.918 87.8491 144.899 87.8084 144.878 87.7638L144.862 87.7327C144.843 87.6939 144.825 87.6512 144.806 87.6066L144.788 87.5698C144.777 87.5426 144.765 87.5116 144.751 87.4825C144.744 87.465 144.738 87.4475 144.73 87.4301C144.715 87.3932 144.699 87.3544 144.684 87.3156L144.664 87.271C144.647 87.2283 144.627 87.1798 144.608 87.1313C144.579 87.0576 144.548 86.98 144.513 86.8946C143.774 85.0497 141.87 80.0386 141.711 79.6389C141.529 79.1888 141.469 79.1171 141.42 79.1171H141.416V79.1248V79.1171C141.368 79.1229 141.294 79.2141 141.141 79.6506L141.04 79.9299L138.401 87.1488C138.366 87.2438 138.332 87.3331 138.299 87.4165C138.287 87.4417 138.277 87.465 138.268 87.4883C138.037 88.0315 137.802 88.3244 137.407 88.3749C137.224 88.4001 137.139 88.4001 137.042 88.4001H137.015H136.982C136.862 88.4001 136.583 88.4001 136.23 88.2895C136.187 88.2759 136.148 88.2565 136.111 88.2352L136.082 88.2177C136.049 88.1945 136.016 88.1712 135.985 88.1421L135.981 88.1401C135.95 88.1091 135.923 88.0761 135.896 88.0412L135.879 88.014C135.855 87.981 135.834 87.9461 135.813 87.9093L135.809 87.8996C135.791 87.8646 135.774 87.8278 135.758 87.7909L135.747 87.7579C135.735 87.7308 135.726 87.7036 135.716 87.6765L135.704 87.6357C135.696 87.6086 135.689 87.5814 135.681 87.5542L135.671 87.5154C135.662 87.4805 135.654 87.4456 135.648 87.4107L135.644 87.3971C135.636 87.3583 135.629 87.3195 135.623 87.2807L135.617 87.24C135.613 87.2147 135.609 87.1895 135.605 87.1643L135.599 87.1197C135.598 87.0964 135.594 87.0751 135.592 87.0537L135.586 87.0091L135.582 86.9703L135.576 86.9199L134.764 79.4818C134.727 79.1889 134.667 79.1403 134.63 79.1403L134.628 79.1481L134.63 79.1423V79.1403C134.556 79.1403 134.496 79.2024 134.388 79.4449L133.959 80.3587L131.086 86.495L130.87 86.9548L127.219 79.4449C127.111 79.2141 127.051 79.1403 127.002 79.1403L126.983 79.1442C126.926 79.1578 126.864 79.2412 126.831 79.4934L126.688 80.7835L125.97 87.271C125.947 87.4611 125.926 87.6551 125.887 87.8258V87.8297C125.874 87.884 125.86 87.9384 125.843 87.9869C125.775 88.1828 125.67 88.3264 125.486 88.3632C125.303 88.4001 125.218 88.4001 125.121 88.4001C125.048 88.4001 125.011 88.4098 125.003 88.4273L125.011 88.4292L125.003 88.4273L125.001 88.435C125.001 88.4486 125.038 88.4835 125.207 88.4835C125.534 88.4835 126.116 88.4486 126.225 88.4486C126.321 88.4486 126.94 88.4835 127.39 88.4835C127.535 88.4835 127.572 88.4486 127.572 88.435C127.572 88.4117 127.524 88.4001 127.45 88.4001C127.378 88.4001 127.219 88.4001 127.014 88.3516L127.01 88.3496C126.99 88.3458 126.973 88.34 126.955 88.3322L126.934 88.3225L126.899 88.305L126.876 88.2895L126.847 88.2643L126.826 88.2449L126.798 88.2138L126.779 88.1886L126.758 88.1498L126.742 88.1207C126.734 88.1033 126.729 88.0858 126.723 88.0683L126.713 88.0412C126.705 88.0121 126.7 87.983 126.694 87.95C126.69 87.9132 126.686 87.8724 126.686 87.8297C126.686 87.6221 126.698 87.4534 126.711 87.2594L127.208 81.544L127.206 81.5382L127.208 81.544C127.341 81.8719 128.735 84.8692 128.844 85.0865C128.906 85.2088 129.949 87.3079 130.263 87.9015C130.494 88.338 130.579 88.4602 130.64 88.4602C130.7 88.4602 130.785 88.3516 131.041 87.8161L133.874 81.8021L134.048 81.4354V81.4412L134.63 87.7676C134.634 87.8064 134.638 87.8453 134.642 87.8821C134.659 88.0548 134.661 88.2061 134.582 88.2662C134.547 88.3012 134.502 88.2914 134.496 88.3205V88.3264C134.496 88.3516 134.556 88.3865 134.836 88.4117C135.297 88.4486 136.278 88.4835 136.933 88.4835C136.97 88.4835 136.999 88.4816 137.023 88.4777C137.052 88.4816 137.085 88.4835 137.127 88.4835C137.455 88.4835 138.413 88.4486 138.522 88.4486C138.655 88.4486 139.02 88.4835 139.468 88.4835C139.613 88.4835 139.65 88.4486 139.65 88.435L139.642 88.4195C139.625 88.4059 139.584 88.4001 139.53 88.4001C139.456 88.4001 139.322 88.4001 139.165 88.3632H139.163C139.126 88.3535 139.095 88.34 139.066 88.3225L139.049 88.3128C139.024 88.2953 139 88.274 138.983 88.2488L138.973 88.2332C138.958 88.21 138.946 88.1828 138.936 88.1518L138.933 88.1382C138.925 88.1052 138.921 88.0664 138.919 88.0237V87.9946C138.919 87.9519 138.923 87.9054 138.931 87.8549L138.936 87.8123C138.944 87.7676 138.954 87.723 138.964 87.6745C138.969 87.6532 138.975 87.6299 138.981 87.6086C138.993 87.5601 139.006 87.5096 139.022 87.4572C139.028 87.4359 139.033 87.4146 139.039 87.3913C139.062 87.3156 139.088 87.2361 139.117 87.1488L139.856 84.9662C139.871 84.9294 139.877 84.9139 139.885 84.908L139.904 84.9042H142.621H142.626L142.653 84.908C142.661 84.9139 142.663 84.9216 142.669 84.941L143.809 87.9616C143.894 88.2061 143.798 88.2779 143.737 88.3147C143.691 88.338 143.656 88.3497 143.652 88.371H143.66V88.3729L143.652 88.371V88.3749C143.652 88.4001 143.689 88.4486 144.017 88.4602C144.852 88.4971 145.713 88.4835 145.981 88.4835C146.124 88.4835 146.157 88.4544 146.161 88.4389L146.163 88.435" fill="white"/>
<path d="M150.061 88.4136C150.047 88.4059 150.02 88.4 149.971 88.4C149.849 88.4 149.618 88.4 149.45 88.3748C149.19 88.3399 149.079 88.1401 149.023 87.9015C149.01 87.8413 148.998 87.7773 148.99 87.7133C148.984 87.6745 148.981 87.6357 148.977 87.5988C148.915 87.0886 148.915 86.1302 148.915 84.9662V82.8303C148.915 80.9368 148.915 80.5974 148.94 80.2094C148.946 80.0949 148.957 79.9882 148.977 79.8931C148.984 79.8524 148.992 79.8155 149.004 79.7806L149.013 79.7515C149.023 79.7224 149.033 79.6952 149.045 79.6681L149.054 79.6506C149.068 79.6215 149.085 79.5944 149.105 79.5692L149.118 79.5517C149.136 79.5323 149.153 79.5168 149.171 79.5013L149.19 79.4857L149.238 79.4566L149.26 79.445C149.285 79.4353 149.31 79.4256 149.339 79.4198C149.461 79.3965 149.558 79.3965 149.655 79.3965C149.727 79.3965 149.789 79.3848 149.789 79.3596L149.787 79.3558C149.781 79.3325 149.721 79.3111 149.595 79.3111C149.231 79.3111 148.467 79.348 148.407 79.348C148.346 79.348 147.581 79.3111 147.036 79.3111C146.898 79.3111 146.848 79.3325 146.842 79.3558V79.3596C146.842 79.3848 146.89 79.3965 146.999 79.3965C147.158 79.3965 147.255 79.4081 147.338 79.4198C147.629 79.4644 147.767 79.6429 147.829 79.8931C147.838 79.93 147.844 79.9688 147.85 80.0076L147.858 80.0542C147.864 80.1027 147.869 80.155 147.873 80.2094C147.897 80.5974 147.897 80.9368 147.897 82.8303V84.9662C147.897 86.1302 147.897 87.0886 147.837 87.5988C147.823 87.6997 147.807 87.8045 147.786 87.9015C147.738 88.1401 147.656 88.3399 147.484 88.3748C147.375 88.4 147.23 88.4 147.121 88.4C147.036 88.4 147.024 88.4233 147.024 88.435L147.028 88.4485C147.04 88.4641 147.08 88.4835 147.218 88.4835C147.581 88.4835 148.346 88.4485 148.407 88.4485C148.467 88.4485 149.219 88.4835 149.812 88.4835C150.006 88.4835 150.061 88.4641 150.074 88.4485H150.064H150.074L150.08 88.435L150.061 88.4136" fill="white"/>
<path d="M157.904 86.9684H157.902C157.876 86.9684 157.853 87.0169 157.828 87.1488C157.756 87.6649 157.543 87.8376 157.186 87.9462L157.188 87.952L157.186 87.9462L157.174 87.9501C156.847 88.0471 156.337 88.0471 155.972 88.0471C155.028 88.0471 154.712 87.9617 154.518 87.7677C154.437 87.6862 154.378 87.5291 154.338 87.2691V87.2614C154.332 87.2226 154.326 87.1799 154.32 87.1353L154.316 87.1081C154.307 87.0169 154.297 86.9141 154.289 86.8016V86.7744C154.281 86.658 154.274 86.53 154.27 86.3903L154.268 86.367C154.264 86.2235 154.26 86.0682 154.256 85.8975V85.8801C154.252 85.6143 154.25 85.3194 154.25 84.9896V82.8303C154.25 80.9369 154.25 80.5974 154.276 80.2094L154.278 80.19C154.28 80.1434 154.283 80.0988 154.289 80.0542C154.291 80.0367 154.293 80.0192 154.295 80.0037C154.301 79.9688 154.305 79.9339 154.313 79.9028C154.328 79.8252 154.349 79.7554 154.375 79.6933C154.384 79.672 154.396 79.6545 154.408 79.6351L154.429 79.5944C154.442 79.5769 154.458 79.5595 154.472 79.5439L154.499 79.5148C154.516 79.4993 154.537 79.4857 154.557 79.4741L154.584 79.4566C154.615 79.4411 154.65 79.4275 154.687 79.4198H154.689C154.809 79.3965 155.014 79.3965 155.111 79.3965C155.185 79.3965 155.245 79.3829 155.245 79.3596V79.3558C155.239 79.3325 155.177 79.3111 155.051 79.3111C154.687 79.3111 153.803 79.348 153.742 79.348C153.68 79.348 152.916 79.3111 152.372 79.3111C152.234 79.3111 152.184 79.3325 152.178 79.3558H152.185H152.178V79.3596C152.178 79.3829 152.226 79.3965 152.335 79.3965C152.492 79.3965 152.589 79.4081 152.674 79.4198C152.719 79.4275 152.759 79.4372 152.798 79.4508L152.829 79.4625C152.856 79.4741 152.884 79.4877 152.907 79.5032L152.93 79.5168C152.959 79.5362 152.986 79.5595 153.01 79.5847L153.023 79.6002C153.041 79.6235 153.058 79.6448 153.074 79.67L153.089 79.6972C153.105 79.7244 153.116 79.7515 153.128 79.7806L153.136 79.7981C153.149 79.833 153.159 79.8718 153.169 79.9106L153.174 79.9397C153.192 80.0231 153.202 80.1124 153.207 80.2074V80.2094C153.233 80.5974 153.233 80.9369 153.233 82.8303V84.9663C153.233 85.9868 153.221 86.5959 153.209 87.0596C153.201 87.2711 153.19 87.4534 153.172 87.5989C153.124 87.9501 153.075 88.3148 152.808 88.3749C152.662 88.4118 152.48 88.4118 152.443 88.4118C152.395 88.4118 152.36 88.4234 152.36 88.4467V88.4487C152.36 88.4719 152.42 88.4836 152.554 88.4836C152.868 88.4836 153.452 88.4487 153.742 88.4487C153.931 88.4487 154.115 88.4506 154.297 88.4525C154.336 88.4545 154.373 88.4545 154.409 88.4545C154.861 88.4642 155.298 88.4797 155.724 88.4952C155.91 88.501 156.096 88.5069 156.281 88.5107C156.321 88.5107 156.362 88.5127 156.403 88.5127C156.597 88.5166 156.791 88.5204 156.982 88.5204H156.992C157.37 88.5204 157.556 88.5088 157.651 88.4409C157.692 88.4099 157.717 88.3691 157.731 88.3148C157.828 87.9501 157.913 87.2458 157.925 87.1488C157.938 87.0654 157.927 86.9723 157.904 86.9684" fill="white"/>
<path d="M104.479 180.131V205.074H109.547C109.547 205.074 108.849 198.712 111.227 192.601C114.585 183.966 122.019 180.131 122.019 180.131H104.479Z" fill="#198FCA"/>
<path d="M61.8154 180.129V205.074H65.42C65.42 205.074 64.9236 198.712 66.6144 192.601C69.0013 183.966 74.2889 180.129 74.2889 180.129H61.8154" fill="#00527A"/>
<path d="M174.693 180.131V205.074H169.625C169.625 205.074 170.323 198.712 167.946 192.601C164.587 183.966 157.153 180.131 157.153 180.131H174.693Z" fill="#198FCA"/>
<path d="M104.479 180.129V205.074H101.091C101.091 205.074 101.559 198.712 99.9708 192.601C97.7255 183.966 92.7578 180.129 92.7578 180.129H104.479" fill="#00527A"/>
<path d="M106.684 16.0924H157.278C157.278 16.0924 162.955 18.302 164.531 22.2461C166.11 26.192 166.74 30.7665 166.74 30.7665H113.912L112.491 22.4051C110.284 18.6182 106.684 16.0924 106.684 16.0924Z" fill="#56A7D0"/>
<path d="M106.683 16.0923L102.381 3.02661e-05C102.381 3.02661e-05 98.0355 3.91883 99.0883 8.04715C101.138 16.0923 106.683 16.0923 106.683 16.0923Z" fill="#4182A3"/>
<path d="M102.381 0H153.931L158.101 16.4571L106.683 16.0924L102.381 0Z" fill="#56A7D0"/>
<path d="M158.101 16.0923L153.799 3.05176e-05C153.799 3.05176e-05 149.453 3.91883 150.506 8.04715C152.556 16.0923 158.101 16.0923 158.101 16.0923Z" fill="#4182A3"/>
<path d="M106.451 16.0924C106.451 16.0924 110.053 18.6182 112.26 22.4051L113.679 30.7665H135.952C139.152 28.3357 142.498 26.1105 146.021 24.1802C150.727 21.6039 155.765 19.563 160.973 18.3079C159.026 16.8645 157.046 16.0924 157.046 16.0924H106.451" fill="#4182A3"/>
<path d="M136.387 66.0861C135.505 65.9678 134.613 65.8048 133.734 65.5837C132.321 63.6146 131.683 59.9771 132.251 57.973C132.536 56.9701 132.997 56.0136 133.684 55.3347C134.684 54.3433 136.053 54.0387 137.358 54.0387C140.55 54.0368 143.898 55.936 145.201 59.3795C145.766 60.8656 145.907 62.6387 145.329 64.117C145.213 64.4158 145.07 64.6932 144.907 64.9551C144.554 65.1549 144.191 65.3334 143.819 65.4867C141.453 66.4567 138.876 66.4179 136.387 66.0861ZM162.515 65.8048C162.476 65.5119 162.342 65.2461 162.198 64.9997C160.758 62.5437 154.363 52.1337 152.473 48.9521C152.434 48.888 152.378 48.8376 152.317 48.8027C152.089 48.6766 151.831 48.9812 151.821 49.278C151.811 49.5767 151.951 49.8464 152.054 50.118C152.135 50.3372 152.186 50.5623 152.219 50.7912C151.955 53.1444 151.563 55.4898 150.757 57.6588C150.074 59.494 149.074 61.176 147.842 62.5514C147.864 61.4456 147.73 60.336 147.427 59.2942C146.342 55.5519 143.404 52.7913 140.16 51.8252C138.262 51.2606 136.208 51.2607 134.384 52.1007C132.559 52.9407 130.993 54.6731 130.38 56.8711C130.089 57.911 130.013 59.0187 130.019 60.1148C130.027 61.4321 130.333 63.2033 130.987 64.6466C129.711 64.0802 128.511 63.3294 127.46 62.3342C127.369 62.0529 127.281 61.7735 127.276 61.4767C127.27 61.2419 127.318 61.0091 127.322 60.7725C127.326 60.5377 127.276 60.2816 127.119 60.1361C126.981 60.0081 126.789 59.9945 126.614 60.0139C125.901 60.0915 125.28 60.5979 124.703 61.1003C124.367 61.3933 124.005 61.7483 123.97 62.241C123.935 62.7648 124.297 63.1005 124.685 63.1916C125.189 63.31 125.631 63.4497 126.089 63.7523C126.149 63.7911 126.209 63.8318 126.269 63.8726C127.454 65.5662 129.476 67.8903 129.754 68.1542C131.516 69.8303 133.542 71.1204 135.702 71.9178C139.123 73.1807 142.863 73.202 146.293 71.9798C149.283 70.9128 152.129 69.4695 154.927 67.8321C156.95 66.6487 158.598 65.7039 160.769 65.6632C160.861 65.7447 160.952 65.83 161.035 65.9251C161.21 66.121 161.365 66.3441 161.566 66.4993C161.77 66.6526 162.039 66.7244 162.249 66.5847C162.468 66.4392 162.553 66.0997 162.515 65.8048Z" fill="white"/>
<path d="M120.043 139.135C120.022 139.135 119.998 139.135 119.975 139.133C118.756 139.098 117.732 138.101 117.282 136.966C116.83 135.831 116.836 134.574 116.848 133.352C116.935 124.48 117.022 115.609 117.107 106.737C117.123 105.177 117.173 103.505 118.092 102.244C119.248 100.657 121.127 100.376 122.961 100.376C123.514 100.376 124.063 100.401 124.586 100.424C124.887 100.438 125.189 100.444 125.49 100.444C126.764 100.444 128.041 100.337 129.323 100.228C130.607 100.122 131.894 100.013 133.193 100.013C133.257 100.013 133.321 100.013 133.387 100.013C133.93 100.019 134.51 100.048 134.946 100.372C135.382 100.696 135.549 101.427 135.132 101.774C134.886 101.98 134.539 101.988 134.221 101.988C130.779 101.99 127.338 102.283 123.946 102.861C123.372 102.96 122.761 103.086 122.362 103.507C121.908 103.984 121.852 104.702 121.829 105.36C121.509 114.728 123.173 124.057 123.295 133.431C123.31 134.667 123.291 135.944 122.796 137.076C122.312 138.188 121.251 139.135 120.043 139.135" fill="#61BAE7"/>
<path d="M146.342 102.197C143.931 102.197 141.519 102.139 139.113 102.025C138.413 101.992 137.378 101.611 137.752 100.7C138.033 100.013 139.212 99.9547 139.815 99.9101C140.596 99.8558 141.385 99.8364 142.177 99.8364C142.927 99.8364 143.679 99.8538 144.432 99.8693C145.182 99.8868 145.932 99.9023 146.675 99.9023C146.683 99.9023 146.689 99.9023 146.694 99.9023C146.698 99.9023 146.7 99.9023 146.702 99.9023C147.216 99.9023 147.769 99.9159 148.18 100.226C148.49 100.461 148.674 100.859 148.633 101.247C148.593 101.633 148.321 101.992 147.955 102.12C147.751 102.19 147.534 102.192 147.319 102.193C146.993 102.195 146.667 102.197 146.342 102.197Z" fill="#61BAE7"/>
<path d="M141.156 105.247C140.813 105.745 140.809 106.397 140.868 106.999C140.943 107.749 141.098 108.493 141.331 109.21C141.473 109.649 141.709 110.138 142.159 110.239C142.516 110.32 142.89 110.109 143.103 109.812C143.319 109.513 143.402 109.144 143.47 108.784C143.637 107.883 143.722 106.968 143.722 106.052C143.724 104.68 141.99 104.036 141.156 105.247Z" fill="#3A4856"/>
<path d="M78.89 154.63C75.5937 162.165 71.0448 169.071 66.5192 175.937C65.5439 177.415 64.5705 178.893 63.5972 180.372H104.273V32.4932C104.273 21.1015 94.7219 11.8652 82.9405 11.8652C78.6845 11.8652 74.7212 13.0718 71.3919 15.1476C71.9542 15.6734 72.6425 16.1526 73.4511 16.5697C78.634 19.2488 82.9968 21.4022 86.3609 26.4869C91.4624 34.1965 92.7441 43.7782 93.2153 53.0106C94.4194 76.6243 91.1929 100.236 87.1171 123.526C85.2635 134.116 83.2023 144.78 78.89 154.63" fill="url(#paint1_linear_120_299)"/>
<path d="M166.74 36.1346H113.266V34.7532H166.74V36.1346Z" fill="#3A4856"/>
<line y1="205.259" x2="283" y2="205.259" stroke="#3A4856" stroke-opacity="0.5" stroke-width="0.5"/>
<defs>
<linearGradient id="paint0_linear_120_299" x1="128.921" y1="180.129" x2="128.921" y2="11.6246" gradientUnits="userSpaceOnUse">
<stop stop-color="#1192D3"/>
<stop offset="1" stop-color="#1192D3" stop-opacity="0.5"/>
</linearGradient>
<linearGradient id="paint1_linear_120_299" x1="83.9352" y1="180.372" x2="83.9352" y2="11.8651" gradientUnits="userSpaceOnUse">
<stop stop-color="#1192D3"/>
<stop offset="1" stop-color="#1192D3" stop-opacity="0.5"/>
</linearGradient>
</defs>
</svg>
