<svg width="283" height="206" viewBox="0 0 283 206" fill="none" xmlns="http://www.w3.org/2000/svg">
<path d="M129.653 180.129V205.074H134.721C134.721 205.074 134.025 198.712 136.401 192.601C139.759 183.966 147.195 180.129 147.195 180.129H129.653" fill="#207B62"/>
<path d="M129.653 180.129V205.074H126.267C126.267 205.074 126.733 198.712 125.145 192.601C122.901 183.966 117.932 180.129 117.932 180.129H129.653" fill="#207B62"/>
<path d="M153.38 11.6246H83.1479V70.2844H94.5724V180.129H174.693V36.0842C174.693 22.2539 165.751 11.6246 153.38 11.6246Z" fill="url(#paint0_linear_120_300)"/>
<path d="M83.1481 11.6247C71.3669 11.6247 61.8154 20.859 61.8154 32.2527V180.131H104.479V32.2527C104.479 20.859 94.9294 11.6247 83.1481 11.6247Z" fill="#5BEFC3"/>
<path d="M113.776 168.722H166.825V97.7411H113.776V168.722ZM167.843 169.739H112.758V96.7226H167.843V169.739Z" fill="#3A4856"/>
<path d="M142.487 84.4581C142.485 84.4658 142.475 84.4678 142.452 84.4678H140.063L140.046 84.4639C140.04 84.4561 140.042 84.4445 140.049 84.4193L141.129 81.1077C141.172 80.9816 141.193 80.9137 141.215 80.9117L141.232 80.9214L141.236 80.9272L141.252 80.9563L141.254 80.9602C141.261 80.9757 141.269 80.9951 141.279 81.0184L141.281 81.0242C141.29 81.0475 141.3 81.0747 141.312 81.1077L142.475 84.4193C142.481 84.4387 142.489 84.4503 142.487 84.4581L142.491 84.462L142.487 84.4581ZM146.163 88.4351C146.163 88.4119 146.126 88.4002 146.029 88.4002C145.907 88.4002 145.678 88.4002 145.496 88.3381C145.455 88.3246 145.419 88.311 145.384 88.2974L145.356 88.2838C145.327 88.2702 145.298 88.2567 145.271 88.2411L145.261 88.2373C145.232 88.2198 145.205 88.2004 145.178 88.181L145.161 88.1655C145.137 88.148 145.118 88.1286 145.099 88.1092L145.085 88.0956C145.064 88.0724 145.042 88.0452 145.021 88.0142L145.005 87.9928C144.988 87.9656 144.971 87.9385 144.953 87.9074L144.94 87.8861C144.918 87.8492 144.899 87.8085 144.878 87.7639L144.862 87.7328C144.843 87.694 144.825 87.6514 144.806 87.6067L144.788 87.5699C144.777 87.5427 144.765 87.5117 144.751 87.4826C144.744 87.4651 144.738 87.4477 144.73 87.4302C144.715 87.3933 144.699 87.3545 144.684 87.3157L144.664 87.2711C144.647 87.2284 144.627 87.1799 144.608 87.1314C144.579 87.0577 144.548 86.9801 144.513 86.8948C143.774 85.0498 141.87 80.0387 141.711 79.6391C141.529 79.189 141.469 79.1172 141.42 79.1172H141.416V79.1249V79.1172C141.368 79.123 141.294 79.2142 141.141 79.6507L141.04 79.9301L138.401 87.1489C138.366 87.244 138.332 87.3332 138.299 87.4166C138.287 87.4418 138.277 87.4651 138.268 87.4884C138.037 88.0316 137.802 88.3246 137.407 88.375C137.224 88.4002 137.139 88.4002 137.042 88.4002H137.015H136.982C136.862 88.4002 136.583 88.4002 136.23 88.2896C136.187 88.2761 136.148 88.2567 136.111 88.2353L136.082 88.2179C136.049 88.1946 136.016 88.1713 135.985 88.1422L135.981 88.1403C135.95 88.1092 135.923 88.0762 135.896 88.0413L135.879 88.0142C135.855 87.9812 135.834 87.9463 135.813 87.9094L135.809 87.8997C135.791 87.8648 135.774 87.8279 135.758 87.791L135.747 87.7581C135.735 87.7309 135.726 87.7037 135.716 87.6766L135.704 87.6358C135.696 87.6087 135.689 87.5815 135.681 87.5544L135.671 87.5156C135.662 87.4806 135.654 87.4457 135.648 87.4108L135.644 87.3972C135.636 87.3584 135.629 87.3196 135.623 87.2808L135.617 87.2401C135.613 87.2149 135.609 87.1896 135.605 87.1644L135.599 87.1198C135.598 87.0965 135.594 87.0752 135.592 87.0538L135.586 87.0092L135.582 86.9704L135.576 86.92L134.764 79.4819C134.727 79.189 134.667 79.1405 134.63 79.1405L134.628 79.1482L134.63 79.1424V79.1405C134.556 79.1405 134.496 79.2025 134.388 79.4451L133.959 80.3588L131.086 86.4951L130.87 86.9549L127.219 79.4451C127.111 79.2142 127.051 79.1405 127.002 79.1405L126.983 79.1443C126.926 79.1579 126.864 79.2413 126.831 79.4936L126.688 80.7837L125.97 87.2711C125.947 87.4612 125.926 87.6552 125.887 87.826V87.8298C125.874 87.8842 125.86 87.9385 125.843 87.987C125.775 88.1829 125.67 88.3265 125.486 88.3634C125.303 88.4002 125.218 88.4002 125.121 88.4002C125.048 88.4002 125.011 88.4099 125.003 88.4274L125.011 88.4293L125.003 88.4274L125.001 88.4351C125.001 88.4487 125.038 88.4836 125.207 88.4836C125.534 88.4836 126.116 88.4487 126.225 88.4487C126.321 88.4487 126.94 88.4836 127.39 88.4836C127.535 88.4836 127.572 88.4487 127.572 88.4351C127.572 88.4119 127.524 88.4002 127.45 88.4002C127.378 88.4002 127.219 88.4002 127.014 88.3517L127.01 88.3498C126.99 88.3459 126.973 88.3401 126.955 88.3323L126.934 88.3226L126.899 88.3052L126.876 88.2896L126.847 88.2644L126.826 88.245L126.798 88.214L126.779 88.1888L126.758 88.15L126.742 88.1209C126.734 88.1034 126.729 88.0859 126.723 88.0685L126.713 88.0413C126.705 88.0122 126.7 87.9831 126.694 87.9501C126.69 87.9133 126.686 87.8725 126.686 87.8298C126.686 87.6223 126.698 87.4535 126.711 87.2595L127.208 81.5442L127.206 81.5383L127.208 81.5442C127.341 81.872 128.735 84.8694 128.844 85.0867C128.906 85.2089 129.949 87.308 130.263 87.9016C130.494 88.3381 130.579 88.4604 130.64 88.4604C130.7 88.4604 130.785 88.3517 131.041 87.8163L133.874 81.8022L134.048 81.4355V81.4413L134.63 87.7678C134.634 87.8066 134.638 87.8454 134.642 87.8822C134.659 88.0549 134.661 88.2062 134.582 88.2664C134.547 88.3013 134.502 88.2916 134.496 88.3207V88.3265C134.496 88.3517 134.556 88.3866 134.836 88.4119C135.297 88.4487 136.278 88.4836 136.933 88.4836C136.97 88.4836 136.999 88.4817 137.023 88.4778C137.052 88.4817 137.085 88.4836 137.127 88.4836C137.455 88.4836 138.413 88.4487 138.522 88.4487C138.655 88.4487 139.02 88.4836 139.468 88.4836C139.613 88.4836 139.65 88.4487 139.65 88.4351L139.642 88.4196C139.625 88.406 139.584 88.4002 139.53 88.4002C139.456 88.4002 139.322 88.4002 139.165 88.3634H139.163C139.126 88.3537 139.095 88.3401 139.066 88.3226L139.049 88.3129C139.024 88.2955 139 88.2741 138.983 88.2489L138.973 88.2334C138.958 88.2101 138.946 88.1829 138.936 88.1519L138.933 88.1383C138.925 88.1053 138.921 88.0665 138.919 88.0239V87.9948C138.919 87.9521 138.923 87.9055 138.931 87.8551L138.936 87.8124C138.944 87.7678 138.954 87.7231 138.964 87.6746C138.969 87.6533 138.975 87.63 138.981 87.6087C138.993 87.5602 139.006 87.5097 139.022 87.4574C139.028 87.436 139.033 87.4147 139.039 87.3914C139.062 87.3157 139.088 87.2362 139.117 87.1489L139.856 84.9664C139.871 84.9295 139.877 84.914 139.885 84.9082L139.904 84.9043H142.621H142.626L142.653 84.9082C142.661 84.914 142.663 84.9218 142.669 84.9412L143.809 87.9618C143.894 88.2062 143.798 88.278 143.737 88.3149C143.691 88.3381 143.656 88.3498 143.652 88.3711H143.66V88.3731L143.652 88.3711V88.375C143.652 88.4002 143.689 88.4487 144.017 88.4604C144.852 88.4972 145.713 88.4836 145.981 88.4836C146.124 88.4836 146.157 88.4545 146.161 88.439L146.163 88.4351" fill="#E5E5E5"/>
<path d="M150.061 88.4137C150.047 88.4059 150.02 88.4001 149.971 88.4001C149.849 88.4001 149.618 88.4001 149.45 88.3749C149.19 88.34 149.079 88.1401 149.023 87.9015C149.01 87.8414 148.998 87.7774 148.99 87.7133C148.984 87.6745 148.981 87.6357 148.977 87.5989C148.915 87.0887 148.915 86.1303 148.915 84.9663V82.8303C148.915 80.9369 148.915 80.5974 148.94 80.2094C148.946 80.095 148.957 79.9882 148.977 79.8932C148.984 79.8524 148.992 79.8156 149.004 79.7807L149.013 79.7516C149.023 79.7225 149.033 79.6953 149.045 79.6681L149.054 79.6507C149.068 79.6216 149.085 79.5944 149.105 79.5692L149.118 79.5517C149.136 79.5323 149.153 79.5168 149.171 79.5013L149.19 79.4858L149.238 79.4567L149.26 79.445C149.285 79.4353 149.31 79.4256 149.339 79.4198C149.461 79.3965 149.558 79.3965 149.655 79.3965C149.727 79.3965 149.789 79.3849 149.789 79.3597L149.787 79.3558C149.781 79.3325 149.721 79.3112 149.595 79.3112C149.231 79.3112 148.467 79.348 148.407 79.348C148.346 79.348 147.581 79.3112 147.036 79.3112C146.898 79.3112 146.848 79.3325 146.842 79.3558V79.3597C146.842 79.3849 146.89 79.3965 146.999 79.3965C147.158 79.3965 147.255 79.4082 147.338 79.4198C147.629 79.4644 147.767 79.6429 147.829 79.8932C147.838 79.93 147.844 79.9688 147.85 80.0076L147.858 80.0542C147.864 80.1027 147.869 80.1551 147.873 80.2094C147.897 80.5974 147.897 80.9369 147.897 82.8303V84.9663C147.897 86.1303 147.897 87.0887 147.837 87.5989C147.823 87.6998 147.807 87.8045 147.786 87.9015C147.738 88.1401 147.656 88.34 147.484 88.3749C147.375 88.4001 147.23 88.4001 147.121 88.4001C147.036 88.4001 147.024 88.4234 147.024 88.435L147.028 88.4486C147.04 88.4641 147.08 88.4835 147.218 88.4835C147.581 88.4835 148.346 88.4486 148.407 88.4486C148.467 88.4486 149.219 88.4835 149.812 88.4835C150.006 88.4835 150.061 88.4641 150.074 88.4486H150.064H150.074L150.08 88.435L150.061 88.4137" fill="#E5E5E5"/>
<path d="M157.904 86.9685H157.902C157.876 86.9685 157.853 87.017 157.828 87.1489C157.756 87.665 157.543 87.8376 157.186 87.9463L157.188 87.9521L157.186 87.9463L157.174 87.9501C156.847 88.0471 156.337 88.0471 155.972 88.0471C155.028 88.0471 154.712 87.9618 154.518 87.7678C154.437 87.6863 154.378 87.5292 154.338 87.2692V87.2614C154.332 87.2226 154.326 87.1799 154.32 87.1353L154.316 87.1082C154.307 87.017 154.297 86.9142 154.289 86.8016V86.7745C154.281 86.6581 154.274 86.53 154.27 86.3904L154.268 86.3671C154.264 86.2235 154.26 86.0683 154.256 85.8976V85.8801C154.252 85.6143 154.25 85.3195 154.25 84.9897V82.8304C154.25 80.9369 154.25 80.5974 154.276 80.2094L154.278 80.19C154.28 80.1435 154.283 80.0988 154.289 80.0542C154.291 80.0368 154.293 80.0193 154.295 80.0038C154.301 79.9689 154.305 79.9339 154.313 79.9029C154.328 79.8253 154.349 79.7555 154.375 79.6934C154.384 79.672 154.396 79.6546 154.408 79.6352L154.429 79.5944C154.442 79.577 154.458 79.5595 154.472 79.544L154.499 79.5149C154.516 79.4994 154.537 79.4858 154.557 79.4741L154.584 79.4567C154.615 79.4412 154.65 79.4276 154.687 79.4198H154.689C154.809 79.3966 155.014 79.3965 155.111 79.3965C155.185 79.3965 155.245 79.383 155.245 79.3597V79.3558C155.239 79.3325 155.177 79.3112 155.051 79.3112C154.687 79.3112 153.803 79.348 153.742 79.348C153.68 79.348 152.916 79.3112 152.372 79.3112C152.234 79.3112 152.184 79.3325 152.178 79.3558H152.185H152.178V79.3597C152.178 79.383 152.226 79.3965 152.335 79.3965C152.492 79.3965 152.589 79.4082 152.674 79.4198C152.719 79.4276 152.759 79.4373 152.798 79.4509L152.829 79.4625C152.856 79.4742 152.884 79.4877 152.907 79.5032L152.93 79.5168C152.959 79.5362 152.986 79.5595 153.01 79.5847L153.023 79.6002C153.041 79.6235 153.058 79.6449 153.074 79.6701L153.089 79.6973C153.105 79.7244 153.116 79.7516 153.128 79.7807L153.136 79.7981C153.149 79.8331 153.159 79.8719 153.169 79.9107L153.174 79.9398C153.192 80.0232 153.202 80.1124 153.207 80.2075V80.2094C153.233 80.5974 153.233 80.9369 153.233 82.8304V84.9664C153.233 85.9868 153.221 86.596 153.209 87.0597C153.201 87.2711 153.19 87.4535 153.172 87.599C153.124 87.9501 153.075 88.3149 152.808 88.375C152.662 88.4119 152.48 88.4119 152.443 88.4119C152.395 88.4119 152.36 88.4235 152.36 88.4468V88.4487C152.36 88.472 152.42 88.4836 152.554 88.4836C152.868 88.4836 153.452 88.4487 153.742 88.4487C153.931 88.4487 154.115 88.4507 154.297 88.4526C154.336 88.4545 154.373 88.4545 154.409 88.4545C154.861 88.4642 155.298 88.4798 155.724 88.4953C155.91 88.5011 156.096 88.5069 156.281 88.5108C156.321 88.5108 156.362 88.5127 156.403 88.5127C156.597 88.5166 156.791 88.5205 156.982 88.5205H156.992C157.37 88.5205 157.556 88.5089 157.651 88.441C157.692 88.4099 157.717 88.3692 157.731 88.3149C157.828 87.9501 157.913 87.2459 157.925 87.1489C157.938 87.0655 157.927 86.9724 157.904 86.9685" fill="#E5E5E5"/>
<path d="M104.479 180.131V205.074H109.547C109.547 205.074 108.849 198.712 111.227 192.601C114.585 183.966 122.019 180.131 122.019 180.131H104.479Z" fill="#30CEA2"/>
<path d="M61.8154 180.129V205.074H65.42C65.42 205.074 64.9236 198.712 66.6144 192.601C69.0013 183.966 74.2889 180.129 74.2889 180.129H61.8154" fill="#207B62"/>
<path d="M174.693 180.131V205.074H169.625C169.625 205.074 170.323 198.712 167.946 192.601C164.587 183.966 157.153 180.131 157.153 180.131H174.693Z" fill="#30CEA2"/>
<path d="M104.479 180.129V205.074H101.091C101.091 205.074 101.559 198.712 99.9708 192.601C97.7255 183.966 92.7578 180.129 92.7578 180.129H104.479" fill="#207B62"/>
<path d="M106.684 16.0925H157.278C157.278 16.0925 162.955 18.3021 164.531 22.2461C166.11 26.1921 166.74 30.7666 166.74 30.7666H113.912L112.491 22.4052C110.284 18.6183 106.684 16.0925 106.684 16.0925Z" fill="#3CB593"/>
<path d="M106.683 16.0924L102.381 9.13013e-05C102.381 9.13013e-05 98.0355 3.91889 99.0883 8.04722C101.138 16.0924 106.683 16.0924 106.683 16.0924Z" fill="#33987C"/>
<path d="M102.381 6.10352e-05H153.931L158.101 16.4572L106.683 16.0924L102.381 6.10352e-05Z" fill="#3CB593"/>
<path d="M158.101 16.0924L153.799 9.15527e-05C153.799 9.15527e-05 149.453 3.91889 150.506 8.04722C152.556 16.0924 158.101 16.0924 158.101 16.0924Z" fill="#33987C"/>
<path d="M106.451 16.0925C106.451 16.0925 110.053 18.6183 112.26 22.4052L113.679 30.7666H135.952C139.152 28.3358 142.498 26.1106 146.021 24.1803C150.727 21.604 155.765 19.5631 160.973 18.3079C159.026 16.8646 157.046 16.0925 157.046 16.0925H106.451" fill="#33987C"/>
<path d="M136.387 66.0862C135.505 65.9679 134.613 65.8049 133.734 65.5838C132.321 63.6147 131.683 59.9772 132.251 57.9732C132.536 56.9702 132.997 56.0138 133.684 55.3348C134.684 54.3434 136.053 54.0389 137.358 54.0389C140.55 54.0369 143.898 55.9362 145.201 59.3797C145.766 60.8657 145.907 62.6389 145.329 64.1171C145.213 64.4159 145.07 64.6933 144.907 64.9552C144.554 65.155 144.191 65.3335 143.819 65.4868C141.453 66.4568 138.876 66.418 136.387 66.0862ZM162.515 65.8049C162.476 65.512 162.342 65.2462 162.198 64.9998C160.758 62.5438 154.363 52.1338 152.473 48.9522C152.434 48.8882 152.378 48.8377 152.317 48.8028C152.089 48.6767 151.831 48.9813 151.821 49.2781C151.811 49.5769 151.951 49.8465 152.054 50.1181C152.135 50.3373 152.186 50.5624 152.219 50.7913C151.955 53.1445 151.563 55.49 150.757 57.6589C150.074 59.4941 149.074 61.1761 147.842 62.5516C147.864 61.4458 147.73 60.3361 147.427 59.2943C146.342 55.5521 143.404 52.7914 140.16 51.8253C138.262 51.2608 136.208 51.2608 134.384 52.1008C132.559 52.9408 130.993 54.6732 130.38 56.8713C130.089 57.9111 130.013 59.0188 130.019 60.1149C130.027 61.4322 130.333 63.2034 130.987 64.6468C129.711 64.0803 128.511 63.3295 127.46 62.3343C127.369 62.053 127.281 61.7736 127.276 61.4768C127.27 61.2421 127.318 61.0093 127.322 60.7726C127.326 60.5378 127.276 60.2818 127.119 60.1363C126.981 60.0082 126.789 59.9947 126.614 60.0141C125.901 60.0917 125.28 60.598 124.703 61.1005C124.367 61.3934 124.005 61.7484 123.97 62.2412C123.935 62.765 124.297 63.1006 124.685 63.1918C125.189 63.3101 125.631 63.4498 126.089 63.7524C126.149 63.7912 126.209 63.832 126.269 63.8727C127.454 65.5663 129.476 67.8904 129.754 68.1543C131.516 69.8304 133.542 71.1205 135.702 71.9179C139.123 73.1808 142.863 73.2022 146.293 71.98C149.283 70.913 152.129 69.4696 154.927 67.8322C156.95 66.6488 158.598 65.7041 160.769 65.6633C160.861 65.7448 160.952 65.8302 161.035 65.9252C161.21 66.1212 161.365 66.3443 161.566 66.4995C161.77 66.6527 162.039 66.7245 162.249 66.5848C162.468 66.4393 162.553 66.0998 162.515 65.8049Z" fill="#E5E5E5"/>
<path d="M120.043 139.135C120.022 139.135 119.998 139.135 119.975 139.133C118.756 139.098 117.732 138.101 117.282 136.966C116.83 135.831 116.836 134.574 116.848 133.352C116.935 124.48 117.022 115.609 117.107 106.737C117.123 105.177 117.173 103.505 118.092 102.244C119.248 100.657 121.127 100.376 122.961 100.376C123.514 100.376 124.063 100.401 124.586 100.424C124.887 100.438 125.189 100.444 125.49 100.444C126.764 100.444 128.041 100.337 129.323 100.228C130.607 100.122 131.894 100.013 133.193 100.013C133.257 100.013 133.321 100.013 133.387 100.013C133.93 100.019 134.51 100.048 134.946 100.372C135.382 100.696 135.549 101.427 135.132 101.774C134.886 101.98 134.539 101.988 134.221 101.988C130.779 101.99 127.338 102.283 123.946 102.861C123.372 102.96 122.761 103.086 122.362 103.507C121.908 103.984 121.852 104.702 121.829 105.36C121.509 114.728 123.173 124.057 123.295 133.431C123.31 134.667 123.291 135.944 122.796 137.077C122.312 138.188 121.251 139.135 120.043 139.135" fill="#3FE3B6"/>
<path d="M146.342 102.197C143.931 102.197 141.519 102.139 139.113 102.025C138.413 101.992 137.378 101.612 137.752 100.7C138.033 100.013 139.212 99.9548 139.815 99.9102C140.596 99.8558 141.385 99.8364 142.177 99.8364C142.927 99.8364 143.679 99.8539 144.432 99.8694C145.182 99.8869 145.932 99.9024 146.675 99.9024C146.683 99.9024 146.689 99.9024 146.694 99.9024C146.698 99.9024 146.7 99.9024 146.702 99.9024C147.216 99.9024 147.769 99.916 148.18 100.226C148.49 100.461 148.674 100.859 148.633 101.247C148.593 101.633 148.321 101.992 147.955 102.12C147.751 102.19 147.534 102.192 147.319 102.194C146.993 102.195 146.667 102.197 146.342 102.197Z" fill="#3FE3B6"/>
<path d="M141.156 105.247C140.813 105.745 140.809 106.397 140.868 106.999C140.943 107.749 141.098 108.493 141.331 109.21C141.473 109.649 141.709 110.138 142.159 110.239C142.516 110.32 142.89 110.109 143.103 109.812C143.319 109.513 143.402 109.144 143.47 108.784C143.637 107.883 143.722 106.968 143.722 106.052C143.724 104.68 141.99 104.036 141.156 105.247Z" fill="#3A4856"/>
<path d="M78.89 154.63C75.5937 162.165 71.0448 169.071 66.5192 175.937C65.5439 177.415 64.5705 178.894 63.5972 180.372H104.273V32.4933C104.273 21.1016 94.7219 11.8653 82.9405 11.8653C78.6845 11.8653 74.7212 13.0719 71.3919 15.1478C71.9542 15.6735 72.6425 16.1527 73.4511 16.5698C78.634 19.2489 82.9968 21.4023 86.3609 26.4871C91.4624 34.1966 92.7441 43.7783 93.2153 53.0108C94.4194 76.6245 91.1929 100.236 87.1171 123.526C85.2635 134.116 83.2023 144.781 78.89 154.63" fill="url(#paint1_linear_120_300)"/>
<path d="M166.74 36.1346H113.266V34.7533H166.74V36.1346Z" fill="#3A4856"/>
<line y1="205.259" x2="283" y2="205.259" stroke="#E5E5E5" stroke-opacity="0.5" stroke-width="0.5"/>
<defs>
<linearGradient id="paint0_linear_120_300" x1="128.921" y1="180.129" x2="128.921" y2="11.6246" gradientUnits="userSpaceOnUse">
<stop stop-color="#2FE0AC" stop-opacity="0.5"/>
<stop offset="1" stop-color="#2FE0AC"/>
</linearGradient>
<linearGradient id="paint1_linear_120_300" x1="83.9352" y1="180.372" x2="83.9352" y2="11.8653" gradientUnits="userSpaceOnUse">
<stop stop-color="#2FE0AC"/>
<stop offset="1" stop-color="#2FE0AC" stop-opacity="0.5"/>
</linearGradient>
</defs>
</svg>
